# Blender v2.79 (sub 0) OBJ File: ''
# www.blender.org
mtllib cabinetTelevisionDoors.mtl
o doorLeft
v -0.400000 0.080000 0.030000
v -0.040000 0.080000 0.030000
v -0.040000 0.270000 0.030000
v -0.400000 0.270000 0.030000
v -0.384920 0.137992 0.010000
v -0.040000 0.080000 0.010000
v -0.400000 0.080000 0.010000
v -0.400000 0.270000 0.010000
v -0.384920 0.197992 0.010000
v -0.364920 0.197992 0.010000
v -0.364920 0.137992 0.010000
v -0.040000 0.270000 0.010000
v -0.364920 0.137992 -0.010000
v -0.384920 0.137992 -0.010000
v -0.384920 0.154106 -0.010000
v -0.364920 0.154106 -0.010000
vt -14.173230 0.000000
vt 0.000000 0.000000
vt 0.000000 7.480315
vt -14.173230 7.480315
vt 13.579530 2.283138
vt 0.000000 0.000000
vt 14.173230 0.000000
vt 14.173230 7.480315
vt 13.579530 4.645343
vt 12.792130 4.645343
vt 12.792130 2.283138
vt 0.000000 7.480315
vt 0.000000 -0.393701
vt 0.000000 0.393701
vt -14.173230 0.393701
vt -14.173230 -0.393701
vt 0.393701 0.000000
vt 0.393701 7.480315
vt -0.393701 7.480315
vt -0.393701 0.000000
vt 0.000000 0.393701
vt 0.000000 -0.393701
vt 14.173230 -0.393701
vt 14.173230 0.393701
vt -0.393701 7.480315
vt -0.393701 0.000000
vt 0.393701 0.000000
vt 0.393701 7.480315
vt 12.792130 2.283138
vt 13.579530 2.283138
vt 13.579530 2.917553
vt 12.792130 2.917553
vt 1.181102 2.283138
vt 1.181102 2.917553
vt 0.393701 4.645343
vt 0.393701 2.283138
vt -1.181102 2.917553
vt -1.181102 2.283138
vt -0.393701 2.283138
vt -0.393701 4.645343
vt -12.792130 -1.181102
vt -12.792130 -0.393701
vt -13.579530 -0.393701
vt -13.579530 -1.181102
vt 12.792130 2.165063
vt 13.579530 2.165063
vt 13.579530 4.063814
vt 12.792130 4.063814
vn 0.0000 -0.0000 1.0000
vn 0.0000 0.0000 -1.0000
vn 0.0000 -1.0000 -0.0000
vn 1.0000 -0.0000 0.0000
vn 0.0000 1.0000 0.0000
vn -1.0000 0.0000 0.0000
vn 0.0000 0.4147 -0.9100
usemtl wood.002
s 1
f 1/1/1 2/2/1 3/3/1
f 3/3/1 4/4/1 1/1/1
f 5/5/2 6/6/2 7/7/2
f 7/7/2 8/8/2 5/5/2
f 8/8/2 9/9/2 5/5/2
f 8/8/2 10/10/2 9/9/2
f 6/6/2 5/5/2 11/11/2
f 11/11/2 12/12/2 6/6/2
f 11/11/2 10/10/2 12/12/2
f 10/10/2 8/8/2 12/12/2
f 6/13/3 2/14/3 1/15/3
f 1/15/3 7/16/3 6/13/3
f 6/17/4 12/18/4 3/19/4
f 3/19/4 2/20/4 6/17/4
f 3/21/5 12/22/5 8/23/5
f 8/23/5 4/24/5 3/21/5
f 8/25/6 7/26/6 1/27/6
f 1/27/6 4/28/6 8/25/6
usemtl metal.002
f 13/29/2 14/30/2 15/31/2
f 15/31/2 16/32/2 13/29/2
f 13/33/4 16/34/4 10/35/4
f 10/35/4 11/36/4 13/33/4
f 15/37/6 14/38/6 5/39/6
f 5/39/6 9/40/6 15/37/6
f 13/41/3 11/42/3 5/43/3
f 5/43/3 14/44/3 13/41/3
f 16/45/7 15/46/7 9/47/7
f 9/47/7 10/48/7 16/45/7
o cabinetTelevisionDoors
v -0.040000 -0.000000 0.040000
v 0.000000 -0.000000 0.040000
v 0.000000 0.040000 0.040000
v -0.040000 0.040000 0.040000
v -0.040000 0.040000 0.000000
v -0.040000 0.000000 0.000000
v 0.000000 0.000000 0.000000
v 0.000000 -0.000000 0.210000
v 0.000000 -0.000000 0.250000
v -0.040000 -0.000000 0.250000
v -0.040000 -0.000000 0.210000
v -0.040000 0.040000 0.250000
v -0.040000 0.040000 0.210000
v -0.040000 0.270000 0.000000
v -0.040000 0.270000 0.210000
v -0.760000 0.270000 0.210000
v -0.390000 0.270000 0.050000
v -0.410000 0.270000 0.050000
v -0.410000 0.270000 0.030000
v -0.390000 0.270000 0.030000
v -0.760000 0.270000 0.000000
v -0.390000 0.080000 0.030000
v -0.040000 0.080000 0.210000
v -0.040000 0.080000 0.000000
v -0.760000 0.080000 0.000000
v -0.410000 0.080000 0.030000
v -0.410000 0.080000 0.050000
v -0.390000 0.080000 0.050000
v -0.760000 0.080000 0.210000
v 0.000000 0.040000 0.210000
v -0.760000 0.000000 0.000000
v -0.760000 -0.000000 0.040000
v -0.800000 -0.000000 0.040000
v -0.800000 0.000000 0.000000
v -0.760000 0.040000 0.040000
v -0.800000 0.040000 0.040000
v -0.760000 -0.000000 0.210000
v -0.760000 0.040000 0.210000
v -0.760000 0.040000 0.250000
v -0.760000 -0.000000 0.250000
v -0.800000 -0.000000 0.210000
v -0.800000 0.040000 0.210000
v -0.800000 -0.000000 0.250000
v 0.000000 0.310000 0.250000
v 0.000000 0.310000 0.000000
v -0.800000 0.310000 0.000000
v -0.800000 0.310000 0.250000
v -0.760000 0.040000 0.000000
v -0.040000 0.165000 0.030000
v -0.040000 0.165000 0.210000
v -0.760000 0.165000 0.210000
v -0.390000 0.165000 0.050000
v -0.410000 0.165000 0.050000
v -0.410000 0.165000 0.030000
v -0.760000 0.165000 0.030000
v -0.390000 0.165000 0.030000
v -0.410000 0.185000 0.050000
v -0.410000 0.185000 0.030000
v -0.760000 0.185000 0.030000
v -0.760000 0.185000 0.210000
v -0.390000 0.185000 0.050000
v -0.040000 0.185000 0.210000
v -0.390000 0.185000 0.030000
v -0.040000 0.185000 0.030000
vt -1.574803 -0.000000
vt 0.000000 -0.000000
vt 0.000000 1.574803
vt -1.574803 1.574803
vt 0.000000 1.574803
vt 0.000000 0.000000
vt 1.574803 0.000000
vt 0.000000 0.000000
vt 0.000000 1.574803
vt -1.574803 1.574803
vt -1.574803 0.000000
vt 0.000000 8.267716
vt 0.000000 9.842520
vt -1.574803 9.842520
vt -1.574803 8.267716
vt 8.267716 0.000000
vt 9.842520 0.000000
vt 9.842520 1.574803
vt -1.574803 0.000000
vt -1.574803 8.267716
vt -29.921261 8.267716
vt -16.141729 1.968504
vt -15.354330 1.968504
vt -16.141729 1.181102
vt -15.354330 1.181102
vt -29.921261 0.000000
vt 15.354330 1.181102
vt 1.574803 8.267716
vt 1.574803 0.000000
vt 29.921261 0.000000
vt 16.141729 1.181102
vt 16.141729 1.968504
vt 15.354330 1.968504
vt 29.921261 8.267716
vt 0.000000 0.000000
vt 1.574803 0.000000
vt 1.574803 1.574803
vt -29.921261 0.000000
vt -29.921261 1.574803
vt -31.496059 1.574803
vt -8.267716 0.000000
vt -8.267716 1.574803
vt -9.842520 1.574803
vt 29.921261 0.000000
vt 31.496059 0.000000
vt 31.496059 1.574803
vt 31.496059 0.000000
vt 31.496059 9.842520
vt 0.000000 9.842520
vt -9.842520 12.204720
vt -9.842520 0.000000
vt -8.267716 0.000000
vt -1.574803 1.574803
vt -1.574803 0.000000
vt 0.000000 12.204720
vt -29.921261 1.574803
vt -1.574803 1.574803
vt -31.496059 12.204720
vt -31.496059 0.000000
vt -29.921261 0.000000
vt 1.574803 1.574803
vt 0.000000 0.000000
vt 1.574803 0.000000
vt 9.842520 12.204720
vt 0.000000 12.204720
vt 8.267716 1.574803
vt 8.267716 0.000000
vt 29.921261 0.000000
vt 31.496059 0.000000
vt 31.496059 12.204720
vt 29.921261 10.629920
vt 29.921261 3.149606
vt 1.574803 10.629920
vt 1.574803 1.574803
vt 0.000000 12.204720
vt -29.921261 8.267716
vt -16.141729 1.968504
vt -15.354330 1.968504
vt -16.141729 1.181102
vt -29.921261 1.181102
vt -1.574803 1.181102
vt -15.354330 1.181102
vt 16.141729 1.968504
vt 16.141729 1.181102
vt 29.921261 1.181102
vt 29.921261 8.267716
vt 29.921261 10.629920
vt 1.574803 10.629920
vt 1.574803 7.283464
vt 1.574803 3.149606
vt 29.921261 3.149606
vt 29.921261 6.496063
vt 1.574803 6.496063
vt -29.921261 9.842520
vt -29.921261 8.267716
vt -29.921261 -0.000000
vt -1.574803 -0.000000
vt -1.574803 8.267716
vt -1.574803 9.842520
vt -0.000000 0.000000
vt 0.000000 1.574803
vt -1.574803 1.574803
vt -15.354330 10.629920
vt -16.141729 10.629920
vt -16.141729 7.283464
vt -15.354330 7.283464
vt -1.574803 7.283464
vt -29.921261 7.283464
vt -29.921261 6.496063
vt -16.141729 6.496063
vt -15.354330 6.496063
vt -1.574803 6.496063
vt -15.354330 3.149606
vt -16.141729 3.149606
vt 0.000000 3.149606
vt 8.267716 3.149606
vt 1.181102 6.496063
vt 8.267716 6.496063
vt 1.181102 7.283464
vt 8.267716 7.283464
vt 8.267716 10.629920
vt 0.000000 10.629920
vt -8.267716 10.629920
vt -1.181102 7.283464
vt -8.267716 7.283464
vt -1.181102 6.496063
vt -8.267716 3.149606
vt 0.000000 3.149606
vt -8.267716 6.496063
vt -16.141729 7.283464
vt -15.354330 7.283464
vt -15.354330 10.629920
vt -1.181102 7.283464
vt -1.968504 10.629920
vt -1.181102 10.629920
vt -15.354330 3.149606
vt -15.354330 6.496063
vt -16.141729 6.496063
vt -1.181102 3.149606
vt -1.181102 6.496063
vt -1.968504 6.496063
vt 1.968504 3.149606
vt 1.968504 6.496063
vt 1.181102 6.496063
vt 1.574803 1.574803
vt 8.267716 1.574803
vt 0.000000 1.574803
vt -31.496059 0.000000
vt -31.496059 0.000000
vt -29.921261 0.000000
vt -29.921261 1.574803
vt -31.496059 1.574803
vt -9.842520 0.000000
vt 29.921261 1.574803
vt -29.921261 8.267716
vt -29.921261 9.842520
vt -31.496059 9.842520
vt -31.496059 8.267716
vt 0.000000 0.000000
vt -8.267716 1.574803
vt -1.574803 0.000000
vt 0.000000 0.000000
vt 9.842520 0.000000
vt 29.921261 1.574803
vt 1.574803 3.149606
vt 1.574803 0.000000
vt -1.574803 8.267716
vt 15.354330 1.968504
vt 1.574803 8.267716
vt 15.354330 1.181102
vt 1.574803 1.181102
vt 29.921261 7.283464
vt -31.496059 8.267716
vt -0.000000 8.267716
vt -1.574803 0.000000
vt 0.000000 10.629920
vt -16.141729 10.629920
vt 1.181102 10.629920
vt 1.968504 7.283464
vt 1.181102 7.283464
vt 1.968504 10.629920
vt -1.968504 7.283464
vt -16.141729 3.149606
vt -1.968504 3.149606
vt 1.181102 3.149606
vn 0.0000 -0.0000 1.0000
vn -1.0000 0.0000 0.0000
vn 0.0000 -1.0000 -0.0000
vn 0.0000 1.0000 -0.0000
vn 0.0000 0.0000 -1.0000
vn 1.0000 0.0000 0.0000
vn -0.6387 -0.3193 -0.7000
vn -0.0002 -1.0000 -0.0000
vn -0.0191 -0.9998 0.0000
usemtl wood.002
s 1
f 17/49/8 18/50/8 19/51/8
f 19/51/8 20/52/8 17/49/8
f 21/53/9 22/54/9 17/55/9
f 23/56/10 18/57/10 17/58/10
f 17/58/10 22/59/10 23/56/10
f 24/60/10 25/61/10 26/62/10
f 26/62/10 27/63/10 24/60/10
f 27/64/9 26/65/9 28/66/9
f 30/67/10 31/68/10 32/69/10
f 32/69/10 34/70/10 33/71/10
f 32/69/10 35/72/10 34/70/10
f 30/67/10 33/71/10 36/73/10
f 36/73/10 37/74/10 30/67/10
f 36/73/10 35/72/10 37/74/10
f 38/75/11 39/76/11 40/77/11
f 41/78/11 42/79/11 38/75/11
f 41/78/11 43/80/11 42/79/11
f 44/81/11 45/82/11 39/76/11
f 43/80/11 41/78/11 45/82/11
f 24/83/12 27/84/12 29/85/12
f 47/86/10 48/87/10 49/88/10
f 53/89/13 54/90/13 55/91/13
f 53/92/12 57/93/12 58/94/12
f 62/95/11 63/96/11 60/97/11
f 60/98/13 25/99/13 24/100/13
f 23/56/13 19/101/13 18/102/13
f 60/103/8 55/104/8 28/105/8
f 55/104/8 60/103/8 63/106/8
f 55/104/8 63/106/8 59/107/8
f 59/107/8 56/108/8 55/104/8
f 52/109/9 50/110/9 49/111/9
f 63/112/9 62/113/9 50/110/9
f 52/109/9 58/114/9 63/112/9
f 58/114/9 57/115/9 63/112/9
f 47/116/12 50/117/12 62/118/12
f 62/118/12 37/119/12 41/120/12
f 62/118/12 30/121/12 37/119/12
f 21/122/12 61/123/12 23/56/12
f 67/124/10 69/125/10 68/126/10
f 67/124/10 70/127/10 69/125/10
f 67/124/10 71/128/10 70/127/10
f 65/129/10 68/126/10 72/130/10
f 73/131/11 74/132/11 75/133/11
f 73/131/11 75/133/11 76/134/11
f 32/135/12 31/136/12 78/137/12
f 39/138/12 45/139/12 67/140/12
f 67/140/12 66/141/12 39/138/12
f 55/142/10 54/143/14 64/144/15
f 55/142/10 21/145/10 20/52/10
f 55/142/10 20/52/10 29/146/10
f 29/146/10 28/147/10 55/142/10
f 47/148/13 64/149/13 51/150/13
f 36/151/8 35/152/8 74/153/8
f 74/153/12 36/151/12 79/154/12
f 80/155/12 75/156/12 79/154/12
f 80/155/12 71/157/12 75/156/12
f 80/155/12 70/158/12 71/157/12
f 80/155/12 72/159/12 70/158/12
f 72/159/12 80/155/12 65/160/12
f 38/161/12 70/158/12 72/159/12
f 70/158/12 38/161/12 42/162/12
f 40/163/9 39/164/9 65/165/9
f 39/164/9 66/166/9 65/165/9
f 80/167/9 78/168/9 31/169/9
f 37/170/13 32/171/13 75/172/13
f 32/171/13 76/173/13 75/172/13
f 71/174/13 45/175/13 41/176/13
f 71/174/13 67/177/13 45/175/13
f 73/178/8 77/179/8 33/180/8
f 79/181/9 33/182/9 36/183/9
f 44/184/8 68/185/8 69/186/8
f 38/187/13 72/188/13 68/189/13
f 43/190/9 69/191/9 70/192/9
f 17/55/9 20/193/9 21/53/9
f 28/66/9 29/194/9 27/64/9
f 32/69/10 33/71/10 30/67/10
f 35/72/10 32/69/10 37/74/10
f 40/77/11 41/78/11 38/75/11
f 39/76/11 38/75/11 44/81/11
f 44/81/11 43/80/11 45/82/11
f 29/85/12 46/195/12 24/83/12
f 49/88/10 50/196/10 47/86/10
f 49/197/8 48/198/8 51/199/8
f 51/199/8 52/200/8 49/197/8
f 55/91/13 56/201/13 53/89/13
f 58/94/12 54/202/12 53/92/12
f 53/203/10 56/204/10 59/205/10
f 59/205/10 57/206/10 53/203/10
f 60/97/11 61/207/11 62/95/11
f 23/56/13 61/123/13 60/98/13
f 60/98/13 19/101/13 23/56/13
f 60/98/13 46/208/13 19/101/13
f 60/98/13 24/100/13 46/208/13
f 26/209/8 25/210/8 60/103/8
f 60/103/8 28/105/8 26/209/8
f 50/110/9 52/109/9 63/112/9
f 57/115/9 59/211/9 63/112/9
f 62/118/12 64/212/12 47/116/12
f 62/118/12 41/120/12 64/212/12
f 41/120/12 21/122/12 64/212/12
f 21/122/12 41/120/12 40/213/12
f 21/122/12 40/213/12 61/123/12
f 40/213/12 30/121/12 61/123/12
f 30/121/12 62/118/12 61/123/12
f 23/56/12 22/214/12 21/122/12
f 65/129/10 66/215/10 67/124/10
f 67/124/10 68/126/10 65/129/10
f 77/216/11 73/131/11 76/134/11
f 77/216/11 76/134/11 78/217/11
f 79/218/11 77/216/11 78/217/11
f 78/217/11 80/219/11 79/218/11
f 78/137/12 76/220/12 32/135/12
f 51/199/16 54/143/14 58/221/10
f 58/221/10 52/200/10 51/199/16
f 54/143/14 51/199/16 64/144/15
f 55/142/10 64/144/15 21/145/10
f 29/146/10 20/52/10 19/51/10
f 19/51/10 46/222/10 29/146/10
f 51/150/13 48/223/13 47/148/13
f 79/154/8 74/153/8 75/156/8
f 65/165/9 30/224/9 40/163/9
f 30/224/9 65/165/9 80/167/9
f 80/167/9 31/169/9 30/224/9
f 75/172/13 41/176/13 37/170/13
f 41/176/13 75/172/13 71/174/13
f 33/180/12 73/178/12 34/225/12
f 35/226/13 73/227/13 74/228/13
f 73/227/13 35/226/13 34/229/13
f 33/182/13 77/230/13 79/181/13
f 69/186/8 43/231/8 44/184/8
f 68/189/13 44/232/13 38/187/13
f 70/192/9 42/233/9 43/190/9
o doorRight
v -0.415080 0.137992 -0.010000
v -0.415080 0.154106 -0.010000
v -0.415080 0.197992 0.010000
v -0.415080 0.137992 0.010000
v -0.435080 0.154106 -0.010000
v -0.435080 0.137992 -0.010000
v -0.435080 0.137992 0.010000
v -0.435080 0.197992 0.010000
v -0.400000 0.270000 0.030000
v -0.400000 0.270000 0.010000
v -0.760000 0.270000 0.010000
v -0.760000 0.270000 0.030000
v -0.760000 0.080000 0.010000
v -0.760000 0.080000 0.030000
v -0.400000 0.080000 0.030000
v -0.400000 0.080000 0.010000
vt -14.173230 0.393701
vt -14.173230 -0.393701
vt 0.000000 -0.393701
vt 0.000000 0.393701
vt -0.393701 7.480315
vt -0.393701 0.000000
vt 0.393701 0.000000
vt 0.393701 7.480315
vt 0.000000 0.000000
vt 14.173230 0.000000
vt 14.173230 7.480315
vt 0.000000 7.480315
vt 14.173230 -0.393701
vt 14.173230 0.393701
vt 0.000000 0.393701
vt 0.000000 -0.393701
vt 0.393701 0.000000
vt 0.393701 7.480315
vt -0.393701 7.480315
vt -0.393701 0.000000
vt -14.173230 0.000000
vt 0.000000 0.000000
vt 0.000000 7.480315
vt -12.792130 2.283138
vt -12.792130 4.645343
vt -13.579530 4.645343
vt -13.579530 2.283138
vt -14.173230 7.480315
vt 1.181102 2.283138
vt 1.181102 2.917553
vt 0.393701 4.645343
vt 0.393701 2.283138
vt -1.181102 2.917553
vt -1.181102 2.283138
vt -0.393701 2.283138
vt -0.393701 4.645343
vt -13.579530 2.283138
vt -12.792130 2.283138
vt -12.792130 2.917553
vt -13.579530 2.917553
vt 13.579530 -1.181102
vt 13.579530 -0.393701
vt 12.792130 -0.393701
vt 12.792130 -1.181102
vt -13.579530 2.165063
vt -12.792130 2.165063
vt -12.792130 4.063814
vt -13.579530 4.063814
vn 0.0000 1.0000 0.0000
vn -1.0000 0.0000 0.0000
vn 0.0000 -0.0000 1.0000
vn 0.0000 -1.0000 -0.0000
vn 1.0000 -0.0000 0.0000
vn -0.0000 0.0000 -1.0000
vn 0.0000 0.4147 -0.9100
usemtl wood.002
s 1
f 89/234/17 90/235/17 91/236/17
f 91/236/17 92/237/17 89/234/17
f 91/238/18 93/239/18 94/240/18
f 94/240/18 92/241/18 91/238/18
f 94/242/19 95/243/19 89/244/19
f 89/244/19 92/245/19 94/242/19
f 96/246/20 95/247/20 94/248/20
f 94/248/20 93/249/20 96/246/20
f 96/250/21 90/251/21 89/252/21
f 89/252/21 95/253/21 96/250/21
f 96/254/22 93/255/22 91/256/22
f 91/256/22 87/257/22 96/254/22
f 91/256/22 88/258/22 87/257/22
f 91/256/22 83/259/22 88/258/22
f 96/254/22 87/257/22 84/260/22
f 84/260/22 90/261/22 96/254/22
f 84/260/22 83/259/22 90/261/22
f 83/259/22 91/256/22 90/261/22
usemtl metal.002
f 81/262/21 82/263/21 83/264/21
f 83/264/21 84/265/21 81/262/21
f 85/266/18 86/267/18 87/268/18
f 87/268/18 88/269/18 85/266/18
f 81/270/22 86/271/22 85/272/22
f 85/272/22 82/273/22 81/270/22
f 81/274/20 84/275/20 87/276/20
f 87/276/20 86/277/20 81/274/20
f 82/278/23 85/279/23 88/280/23
f 88/280/23 83/281/23 82/278/23
