# Blender v2.91.0 OBJ File: ''
# www.blender.org
mtllib frige.mtl
o kitchenFridgeSmall
v 0.000000 -0.000000 0.040000
v 0.000000 -0.000000 0.281934
v -0.430000 -0.000000 0.281934
v -0.430000 -0.000000 0.040000
v 0.000000 0.600246 0.281934
v 0.000000 0.600246 0.020000
v -0.430000 0.600246 0.020000
v -0.430000 0.600246 0.281934
v 0.000000 0.059980 0.020000
v 0.000000 0.059980 0.040000
v -0.077929 0.077929 0.281934
v -0.077929 0.335673 0.281934
v -0.352071 0.335673 0.281934
v -0.352071 0.077929 0.281934
v -0.430000 0.059980 0.040000
v -0.430000 0.059980 0.020000
v -0.026844 0.086824 0.250000
v -0.403156 0.086824 0.250000
v -0.403156 0.573402 0.250000
v -0.026844 0.573402 0.250000
v -0.026844 0.573402 0.020000
v -0.403156 0.573402 0.020000
v -0.026844 0.086824 0.020000
v -0.403156 0.086824 0.020000
v -0.363156 0.453402 0.000000
v -0.026844 0.086824 0.000000
v -0.403156 0.086824 0.000000
v -0.403156 0.573402 0.000000
v -0.363156 0.533402 0.000000
v -0.343156 0.533402 0.000000
v -0.343156 0.453402 0.000000
v -0.026844 0.573402 0.000000
v -0.026844 0.573402 0.050000
v -0.403156 0.573402 0.050000
v -0.067814 0.127794 0.050000
v -0.403156 0.086824 0.050000
v -0.026844 0.086824 0.050000
v -0.067814 0.200325 0.050000
v -0.067814 0.249901 0.050000
v -0.067814 0.370325 0.050000
v -0.067814 0.419901 0.050000
v -0.067814 0.532432 0.050000
v -0.362186 0.532432 0.050000
v -0.362186 0.127794 0.050000
v -0.362186 0.200325 0.050000
v -0.362186 0.249901 0.050000
v -0.362186 0.370325 0.050000
v -0.362186 0.419901 0.050000
v -0.067814 0.127794 0.030000
v -0.362186 0.127794 0.030000
v -0.362186 0.200325 0.030000
v -0.362186 0.370325 0.030000
v -0.362186 0.532432 0.030000
v -0.067814 0.532432 0.030000
v -0.067814 0.200325 0.030000
v -0.067814 0.370325 0.030000
v -0.362186 0.200325 0.090000
v -0.067814 0.200325 0.090000
v -0.067814 0.249901 0.090000
v -0.362186 0.249901 0.090000
v -0.362186 0.370325 0.090000
v -0.362186 0.419901 0.090000
v -0.067814 0.370325 0.090000
v -0.067814 0.419901 0.090000
v -0.343156 0.453402 -0.010000
v -0.363156 0.453402 -0.010000
v -0.363156 0.533402 -0.010000
v -0.343156 0.533402 -0.010000
vt 0.000000 1.574803
vt 0.000000 11.099760
vt -16.929131 11.099760
vt -16.929131 1.574803
vt -0.787402 2.361418
vt -0.787402 23.631741
vt -11.099760 23.631741
vt -1.574803 2.361418
vt -1.574803 0.000000
vt -3.068075 3.068075
vt -16.929131 0.000000
vt 0.000000 0.000000
vt 0.000000 23.631741
vt -13.861060 3.068075
vt -13.861060 13.215460
vt -16.929131 23.631741
vt 1.574803 2.361418
vt 1.574803 0.000000
vt 11.099760 0.000000
vt 11.099760 23.631741
vt 0.787402 23.631741
vt -16.929131 1.574803
vt -16.929131 0.787402
vt 0.000000 0.787402
vt 16.929131 23.631741
vt 15.872280 22.574890
vt 15.872280 3.418275
vt 1.056858 3.418275
vt 1.056858 22.574890
vt 0.000000 23.631741
vt -0.787402 3.418275
vt -0.787402 22.574890
vt -9.842520 22.574890
vt -9.842520 3.418275
vt 0.000000 11.099760
vt 0.000000 0.787402
vt 16.929131 0.787402
vt 16.929131 11.099760
vt -11.099760 0.000000
vt -3.068075 13.215460
vt 0.787402 2.361418
vt 0.000000 0.000000
vt 16.929131 0.000000
vt 16.929131 2.361418
vt 0.000000 2.361418
vt 0.000000 1.574803
vt 1.056858 3.418275
vt 15.872280 3.418275
vt 15.872280 22.574890
vt 1.056858 22.574890
vt -1.056858 0.787402
vt -1.056858 9.842520
vt -15.872280 9.842520
vt -15.872280 0.787402
vt 1.056858 9.842520
vt 1.056858 0.787402
vt 15.872280 0.787402
vt 15.872280 9.842520
vt 0.000000 2.361418
vt 16.929131 2.361418
vt 0.787402 22.574890
vt 0.787402 3.418275
vt 9.842520 3.418275
vt 9.842520 22.574890
vt 13.240620 14.432200
vt 0.000000 0.000000
vt 14.815420 0.000000
vt 14.815420 19.156610
vt 13.240620 17.581810
vt 12.453210 17.581810
vt 12.453210 14.432200
vt 0.000000 19.156610
vt 0.000000 0.984252
vt 0.000000 -0.984252
vt 14.815420 -0.984252
vt 14.815420 0.984252
vt -1.612980 1.612980
vt -14.815420 0.000000
vt 0.000000 0.000000
vt 0.000000 19.156610
vt -1.612980 4.468540
vt -1.612980 6.420354
vt -1.612980 11.161450
vt -1.612980 13.113270
vt -1.612980 17.543631
vt -13.202440 17.543631
vt -13.202440 1.612980
vt -14.815420 19.156610
vt -13.202440 4.468540
vt -13.202440 6.420354
vt -13.202440 11.161450
vt -13.202440 13.113270
vt 0.000000 -0.984252
vt 0.000000 0.984252
vt -14.815420 0.984252
vt -14.815420 -0.984252
vt 0.984252 0.000000
vt 0.984252 19.156610
vt -0.984252 19.156610
vt -0.984252 0.000000
vt -0.984252 19.156610
vt -0.984252 0.000000
vt 0.984252 0.000000
vt 0.984252 19.156610
vt 1.612980 0.984252
vt 1.612980 0.196850
vt 13.202440 0.196850
vt 13.202440 0.984252
vt -0.196850 1.612980
vt -0.196850 4.468540
vt -0.984252 4.468540
vt -0.984252 1.612980
vt -0.984252 11.161450
vt -0.196850 11.161450
vt -0.984252 6.420354
vt -0.984252 17.543631
vt -0.196850 17.543631
vt -0.984252 13.113270
vt -1.612980 0.196850
vt -1.612980 0.984252
vt -13.202440 0.984252
vt -13.202440 0.196850
vt -13.202440 1.612980
vt -1.612980 1.612980
vt -1.612980 4.468540
vt -13.202440 4.468540
vt -1.612980 11.161450
vt -13.202440 11.161450
vt -1.612980 17.543631
vt -13.202440 17.543631
vt 0.196850 4.468540
vt 0.196850 1.612980
vt 0.984252 1.612980
vt 0.984252 4.468540
vt 0.196850 11.161450
vt 0.984252 11.161450
vt 0.196850 17.543631
vt 0.984252 17.543631
vt 0.984252 13.113270
vt 0.984252 6.420354
vt -1.612980 6.420354
vt -13.202440 6.420354
vt -13.202440 4.468540
vt -1.612980 4.468540
vt -1.612980 0.984252
vt -13.202440 2.559055
vt -1.612980 2.559055
vt -1.612980 0.196850
vt -13.202440 0.196850
vt -13.202440 0.984252
vt -0.984252 4.468540
vt -0.984252 6.420354
vt -2.559055 6.420354
vt -2.559055 4.468540
vt 0.984252 6.420354
vt 0.984252 4.468540
vt 2.559055 4.468540
vt 2.559055 6.420354
vt 0.984252 13.113270
vt 0.984252 11.161450
vt 2.559055 11.161450
vt 2.559055 13.113270
vt -1.612980 13.113270
vt -13.202440 13.113270
vt -13.202440 11.161450
vt -1.612980 11.161450
vt -1.612980 0.984252
vt -1.612980 2.559055
vt -13.202440 2.559055
vt -13.202440 0.196850
vt -1.612980 0.196850
vt -13.202440 0.984252
vt -0.984252 11.161450
vt -2.559055 13.113270
vt -0.984252 13.113270
vt -2.559055 11.161450
vt 12.453210 14.432200
vt 13.240620 14.432200
vt 13.240620 17.581810
vt 12.453210 17.581810
vt -1.377953 17.581810
vt -1.377953 14.432200
vt -0.984252 14.432200
vt -0.984252 17.581810
vt -12.453210 -1.377953
vt -12.453210 -0.984252
vt -13.240620 -0.984252
vt -13.240620 -1.377953
vt 12.453210 -0.984252
vt 12.453210 -1.377953
vt 13.240620 -1.377953
vt 13.240620 -0.984252
vt 0.984252 14.432200
vt 1.377953 14.432200
vt 1.377953 17.581810
vt 0.984252 17.581810
vn 0.0000 -1.0000 -0.0000
vn 1.0000 0.0000 0.0000
vn -0.0000 -0.0000 1.0000
vn -1.0000 0.0000 0.0000
vn 0.0000 0.0000 -1.0000
vn 0.0000 1.0000 0.0000
vn 0.1460 0.9123 -0.3827
vn 0.1460 0.9123 0.3827
vn 0.4131 0.8695 -0.2706
vn 0.0000 0.0000 0.0000
usemtl metalLight
s 1
f 1/1/1 2/2/1 3/3/1
f 3/3/1 4/4/1 1/1/1
f 9/5/2 6/6/2 5/7/2
f 5/7/2 10/8/2 9/5/2
f 5/7/2 1/9/2 10/8/2
f 11/10/3 3/11/3 2/12/3
f 2/12/3 5/13/3 11/10/3
f 3/11/3 11/10/3 14/14/3
f 13/15/3 5/13/3 8/16/3
f 15/17/4 4/18/4 3/19/4
f 15/17/4 3/19/4 8/20/4
f 15/17/4 8/20/4 7/21/4
f 15/22/1 16/23/1 9/24/1
f 7/25/5 22/26/5 24/27/5
f 23/28/5 21/29/5 6/30/5
f 24/31/2 22/32/2 19/33/2
f 19/33/2 18/34/2 24/31/2
f 5/35/6 6/36/6 7/37/6
f 7/37/6 8/38/6 5/35/6
f 5/7/2 2/39/2 1/9/2
f 5/13/3 12/40/3 11/10/3
f 5/13/3 13/15/3 12/40/3
f 14/14/3 8/16/3 3/11/3
f 14/14/3 13/15/3 8/16/3
f 7/21/4 16/41/4 15/17/4
f 1/42/5 4/43/5 15/44/5
f 15/44/5 10/45/5 1/42/5
f 9/24/1 10/46/1 15/22/1
f 17/47/5 18/48/5 19/49/5
f 19/49/5 20/50/5 17/47/5
f 21/51/1 20/52/1 19/53/1
f 19/53/1 22/54/1 21/51/1
f 17/55/6 23/56/6 24/57/6
f 24/57/6 18/58/6 17/55/6
f 24/27/5 9/59/5 16/60/5
f 16/60/5 7/25/5 24/27/5
f 7/25/5 21/29/5 22/26/5
f 9/59/5 24/27/5 23/28/5
f 23/28/5 6/30/5 9/59/5
f 21/29/5 7/25/5 6/30/5
f 21/61/4 23/62/4 17/63/4
f 17/63/4 20/64/4 21/61/4
f 25/65/5 26/66/5 27/67/5
f 27/67/5 28/68/5 25/65/5
f 28/68/5 29/69/5 25/65/5
f 28/68/5 30/70/5 29/69/5
f 26/66/5 25/65/5 31/71/5
f 31/71/5 32/72/5 26/66/5
f 31/71/5 30/70/5 32/72/5
f 30/70/5 28/68/5 32/72/5
f 33/73/6 32/74/6 28/75/6
f 28/75/6 34/76/6 33/73/6
f 35/77/3 36/78/3 37/79/3
f 37/79/3 33/80/3 35/77/3
f 33/80/3 38/81/3 35/77/3
f 33/80/3 39/82/3 38/81/3
f 33/80/3 40/83/3 39/82/3
f 33/80/3 41/84/3 40/83/3
f 33/80/3 42/85/3 41/84/3
f 33/80/3 43/86/3 42/85/3
f 36/78/3 35/77/3 44/87/3
f 44/87/3 34/88/3 36/78/3
f 43/86/3 33/80/3 34/88/3
f 44/87/3 45/89/3 34/88/3
f 45/89/3 46/90/3 34/88/3
f 46/90/3 47/91/3 34/88/3
f 47/91/3 48/92/3 34/88/3
f 48/92/3 43/86/3 34/88/3
f 26/93/1 37/94/1 36/95/1
f 36/95/1 27/96/1 26/93/1
f 26/97/2 32/98/2 33/99/2
f 33/99/2 37/100/2 26/97/2
f 28/101/4 27/102/4 36/103/4
f 36/103/4 34/104/4 28/101/4
f 35/105/6 49/106/6 50/107/6
f 50/107/6 44/108/6 35/105/6
f 50/109/2 51/110/2 45/111/2
f 45/111/2 44/112/2 50/109/2
f 47/113/2 45/111/2 51/110/2
f 51/110/2 52/114/2 47/113/2
f 47/113/2 46/115/2 45/111/2
f 43/116/2 47/113/2 52/114/2
f 52/114/2 53/117/2 43/116/2
f 43/116/2 48/118/4 47/113/2
f 54/119/1 42/120/1 43/121/1
f 43/121/1 53/122/1 54/119/1
f 50/123/3 49/124/3 55/125/3
f 55/125/3 51/126/3 50/123/3
f 51/126/3 55/125/3 56/127/3
f 56/127/3 52/128/3 51/126/3
f 52/128/3 56/127/3 54/129/3
f 54/129/3 53/130/3 52/128/3
f 55/131/4 49/132/4 35/133/4
f 35/133/4 38/134/4 55/131/4
f 56/135/4 55/131/4 38/134/4
f 38/134/4 40/136/4 56/135/4
f 54/137/4 56/135/4 40/136/4
f 40/136/4 42/138/4 54/137/4
f 40/136/4 41/139/5 42/138/4
f 38/134/4 39/140/3 40/136/4
usemtl metalDark.003
f 14/14/3 11/10/3 12/40/3
f 12/40/3 13/15/3 14/14/3
usemtl glass
f 59/141/3 60/142/3 57/143/3
f 57/143/5 59/141/5 58/144/5
f 38/145/6 57/146/6 58/147/6
f 57/146/6 38/145/6 55/148/6
f 57/146/6 55/148/6 51/149/6
f 57/146/7 51/149/8 45/150/9
f 38/151/2 39/152/2 59/153/2
f 59/153/2 58/154/2 38/151/2
f 46/155/4 45/156/4 57/157/4
f 57/157/4 60/158/4 46/155/4
f 48/159/4 47/160/4 61/161/4
f 61/161/4 62/162/4 48/159/4
f 64/163/3 62/164/3 61/165/3
f 61/165/5 64/163/5 63/166/5
f 40/167/1 63/168/1 61/169/1
f 61/169/1 52/170/1 56/171/1
f 61/169/10 47/172/10 52/170/10
f 61/169/6 40/167/6 56/171/6
f 40/173/4 64/174/4 41/175/4
f 64/174/4 40/173/4 63/176/4
usemtl metal
f 65/177/5 66/178/5 67/179/5
f 67/179/5 68/180/5 65/177/5
f 67/181/4 66/182/4 25/183/4
f 25/183/4 29/184/4 67/181/4
f 65/185/1 31/186/1 25/187/1
f 25/187/1 66/188/1 65/185/1
f 30/189/6 68/190/6 67/191/6
f 67/191/6 29/192/6 30/189/6
f 31/193/2 65/194/2 68/195/2
f 68/195/2 30/196/2 31/193/2
