# Blender v2.91.0 OBJ File: ''
# www.blender.org
mtllib trashbox.mtl
o trashcan
v -0.103847 -0.000000 0.000000
v -0.051923 -0.000000 0.089934
v -0.051923 0.341056 0.089934
v -0.103847 0.368184 0.000000
v -0.051923 0.368184 0.089934
v -0.051923 0.000000 -0.089934
v -0.051923 0.032554 -0.089934
v -0.051923 0.368184 -0.089934
v 0.051923 0.368184 -0.089934
v 0.051923 0.032554 -0.089934
v 0.103847 0.368184 0.000000
v 0.103847 0.000000 -0.000000
v 0.051923 0.000000 -0.089934
v 0.051923 -0.000000 0.089934
v 0.051923 0.341056 0.089934
v 0.051923 0.368184 0.089934
v -0.046498 0.000000 -0.122488
v 0.046498 0.000000 -0.122488
v -0.051923 0.395312 0.089934
v 0.051923 0.395312 0.089934
v 0.103847 0.395312 0.000000
v 0.051923 0.395312 -0.089934
v -0.051923 0.395312 -0.089934
v -0.103847 0.395312 0.000000
v 0.070616 0.427866 0.000000
v 0.035308 0.427866 -0.061155
v -0.035308 0.427866 -0.061155
v -0.070616 0.427866 0.000000
v 0.035308 0.427866 0.061155
v -0.035308 0.427866 0.061155
v -0.046498 0.027128 -0.122488
v 0.046498 0.027128 -0.122488
v -0.044654 0.366285 0.111637
v -0.044654 0.342955 0.111637
v 0.044654 0.342955 0.111637
v 0.044654 0.366285 0.111637
vt -4.330709 0.000000
vt 4.330709 -0.000000
vt 4.330709 28.446011
vt -4.330709 30.708660
vt -4.330709 0.000000
vt 4.330709 0.000000
vt 4.330709 30.708660
vt -4.330709 2.715178
vt 4.330709 2.715178
vt 4.330709 30.708660
vt -4.330709 30.708660
vt -4.330709 -0.000000
vt 4.330709 -0.000000
vt 4.330709 30.708660
vt -4.330709 28.446011
vt 7.501008 -4.330709
vt 10.216190 -3.878179
vt 10.216190 3.878179
vt -7.501008 4.330709
vt -7.501008 -4.330709
vt -0.000000 -8.661417
vt -4.330709 28.446011
vt -4.330709 -0.000000
vt 4.330709 -0.000000
vt 4.330709 28.446011
vt 4.330709 30.708660
vt -4.330709 30.708660
vt -4.330709 2.715178
vt -4.330709 30.708660
vt -4.330709 -0.000000
vt 4.330709 0.000000
vt 4.330709 2.715178
vt 4.330709 30.708660
vt -4.330709 30.708660
vt 7.501008 4.330709
vt 0.000000 8.661417
vt -4.330709 32.971310
vt -4.330709 30.708660
vt 4.330709 30.708660
vt 4.330709 32.971310
vt 4.330709 32.971310
vt 4.330709 32.971310
vt -4.330709 32.971310
vt -5.100685 -2.944882
vt -0.000000 -5.889764
vt -0.000000 5.889764
vt 5.100685 -2.944882
vt 5.100685 2.944882
vt 4.330709 19.734310
vt 2.944882 23.358360
vt -2.944882 23.358360
vt -4.330709 19.734310
vt 4.330709 19.734310
vt 2.944882 23.358360
vt -2.944882 23.358360
vt -4.330709 19.734310
vt 4.330709 19.734310
vt 2.944882 23.358360
vt 2.944882 23.358360
vt -2.944882 23.358360
vt -4.330709 19.734310
vt -6.686984 2.715178
vt -9.439614 2.262648
vt -9.439614 0.000000
vt 6.686984 0.000000
vt 9.439614 0.000000
vt 9.439614 2.262648
vt 6.686984 2.715178
vt 4.330709 -6.952576
vt -4.330709 -6.952576
vt -3.878179 -9.705206
vt 3.878179 0.000000
vt 3.878179 2.262648
vt -3.878179 2.262648
vt 3.724409 28.604401
vt 3.724409 30.550280
vt -3.724409 30.550280
vt 5.737160 30.708660
vt 5.737160 28.446011
vt 7.646120 28.604401
vt 3.724409 11.769040
vt -3.724409 11.769040
vt -4.330709 9.952008
vt -4.330709 -4.795676
vt -3.724409 -6.612711
vt 3.724409 -6.612711
vt 4.330709 32.971310
vt -4.330709 32.971310
vt -4.330709 32.971310
vt 4.330709 32.971310
vt -4.330709 32.971310
vt 4.330709 32.971310
vt -4.330709 32.971310
vt -5.100685 2.944882
vt -4.330709 19.734310
vt 4.330709 19.734310
vt 2.944882 23.358360
vt -2.944882 23.358360
vt -4.330709 19.734310
vt -2.944882 23.358360
vt 4.330709 19.734310
vt 2.944882 23.358360
vt -2.944882 23.358360
vt -4.330709 19.734310
vt 4.330709 19.734310
vt -6.686984 0.000000
vt 3.878179 -9.705206
vt -3.878179 0.000000
vt -3.724409 28.604401
vt 7.646120 30.550280
vt 4.330709 9.952008
vt -7.646120 28.604401
vt -5.737160 28.446011
vt -5.737160 30.708660
vt -7.646120 30.550280
vt 4.330709 -4.795676
vn -0.8660 -0.0000 0.5000
vn -0.8660 0.0000 -0.5000
vn -0.0000 0.0000 -1.0000
vn 0.8660 -0.0000 0.5000
vn 0.0000 -1.0000 -0.0000
vn 0.0000 -0.0000 1.0000
vn 0.8660 0.0000 -0.5000
vn 0.0000 1.0000 0.0000
vn -0.6488 0.6623 -0.3746
vn -0.6488 0.6623 0.3746
vn 0.0000 0.6623 0.7492
vn 0.6488 0.6623 -0.3746
vn -0.9864 0.0000 -0.1644
vn 0.9864 0.0000 -0.1644
vn -0.0000 0.9864 -0.1644
vn -0.9482 0.0000 0.3176
vn 0.0000 -0.9962 0.0872
vn 0.0000 0.9962 0.0872
vn -0.0000 0.6623 -0.7492
vn 0.6488 0.6623 0.3746
vn 0.9482 -0.0000 0.3176
usemtl metal
s 1
f 1/1/1 2/2/1 3/3/1
f 3/3/1 4/4/1 1/1/1
f 6/5/2 1/6/2 4/7/2
f 4/7/2 7/8/2 6/5/2
f 7/9/3 8/10/3 9/11/3
f 14/12/4 12/13/4 11/14/4
f 11/14/4 15/15/4 14/12/4
f 6/16/5 17/17/5 18/18/5
f 14/19/5 2/20/5 1/21/5
f 3/22/6 2/23/6 14/24/6
f 14/24/6 15/25/6 3/22/6
f 3/3/1 5/26/1 4/4/1
f 4/7/2 8/27/2 7/8/2
f 9/11/3 10/28/3 7/9/3
f 11/29/7 12/30/7 13/31/7
f 13/31/7 10/32/7 11/29/7
f 10/32/7 9/33/7 11/29/7
f 11/14/4 16/34/4 15/15/4
f 18/18/5 13/35/5 6/16/5
f 13/35/5 1/21/5 6/16/5
f 13/35/5 12/36/5 1/21/5
f 12/36/5 14/19/5 1/21/5
usemtl metalDark
f 19/37/6 5/38/6 16/39/6
f 16/34/4 11/14/4 21/40/4
f 11/29/7 9/33/7 22/41/7
f 8/10/3 23/42/3 22/43/3
f 27/44/8 28/45/8 25/46/8
f 28/45/8 30/47/8 29/48/8
f 24/49/9 28/50/9 27/51/9
f 24/52/10 19/53/10 30/54/10
f 30/55/11 19/56/11 20/57/11
f 20/57/11 29/58/11 30/55/11
f 26/59/12 25/60/12 21/61/12
f 7/62/13 31/63/13 17/64/13
f 13/65/14 18/66/14 32/67/14
f 32/67/14 10/68/14 13/65/14
f 7/69/15 10/70/15 32/71/15
f 17/72/3 31/73/3 32/74/3
f 35/75/6 36/76/6 33/77/6
f 5/78/16 3/79/16 34/80/16
f 35/81/17 34/82/17 3/83/17
f 5/84/18 33/85/18 36/86/18
f 16/39/6 20/87/6 19/37/6
f 21/40/4 20/88/4 16/34/4
f 22/41/7 21/89/7 11/29/7
f 22/43/3 9/11/3 8/10/3
f 8/27/2 4/7/2 24/90/2
f 24/90/2 23/91/2 8/27/2
f 4/4/1 5/26/1 19/92/1
f 19/92/1 24/93/1 4/4/1
f 25/46/8 26/94/8 27/44/8
f 28/45/8 29/48/8 25/46/8
f 22/95/19 23/96/19 27/97/19
f 27/97/19 26/98/19 22/95/19
f 27/51/9 23/99/9 24/49/9
f 30/54/10 28/100/10 24/52/10
f 21/101/20 25/102/20 29/103/20
f 29/103/20 20/104/20 21/101/20
f 21/61/12 22/105/12 26/59/12
f 17/64/13 6/106/13 7/62/13
f 32/71/15 31/107/15 7/69/15
f 32/74/3 18/108/3 17/72/3
f 33/77/6 34/109/6 35/75/6
f 34/80/16 33/110/16 5/78/16
f 3/83/17 15/111/17 35/81/17
f 35/112/21 15/113/21 16/114/21
f 16/114/21 36/115/21 35/112/21
f 36/86/18 16/116/18 5/84/18
