# Blender v2.79 (sub 0) OBJ File: ''
# www.blender.org
mtllib cabinetBedDrawerTable.mtl
o cabinetBedDrawerTable
v -0.030000 -0.000000 0.205000
v 0.000000 -0.000000 0.205000
v 0.000000 0.243200 0.205000
v -0.030000 0.143609 0.205000
v -0.216000 0.143609 0.205000
v -0.246000 0.243200 0.205000
v 0.010000 0.263200 0.205000
v 0.010000 0.243200 0.205000
v -0.256000 0.243200 0.205000
v -0.256000 0.263200 0.205000
v -0.246000 -0.000000 0.205000
v -0.216000 -0.000000 0.205000
v -0.246000 0.143609 0.175000
v -0.246000 -0.000000 0.175000
v -0.246000 0.143609 0.030000
v -0.246000 0.243200 0.000000
v -0.246000 -0.000000 0.030000
v -0.246000 0.000000 0.000000
v 0.000000 0.143609 0.030000
v 0.000000 0.000000 0.000000
v 0.000000 0.243200 0.000000
v 0.000000 0.143609 0.175000
v 0.000000 -0.000000 0.175000
v 0.000000 -0.000000 0.030000
v -0.024600 0.218600 0.164000
v -0.024600 0.218600 0.000000
v -0.024600 0.168209 0.000000
v -0.024600 0.168209 0.164000
v -0.024600 0.168600 0.164000
v -0.221400 0.218600 0.164000
v -0.221400 0.218600 0.000000
v 0.010000 0.263200 -0.010000
v -0.256000 0.263200 -0.010000
v 0.010000 0.243200 -0.010000
v -0.256000 0.243200 -0.010000
v -0.216000 0.143609 0.030000
v -0.216000 0.143609 0.175000
v -0.216000 0.143609 0.000000
v -0.030000 0.143609 0.000000
v -0.030000 0.143609 0.030000
v -0.030000 0.143609 0.175000
v -0.030000 -0.000000 0.030000
v -0.030000 0.000000 0.000000
v -0.216000 0.000000 0.000000
v -0.216000 -0.000000 0.030000
v -0.216000 -0.000000 0.175000
v -0.030000 -0.000000 0.175000
v -0.221400 0.168209 0.164000
v -0.221400 0.168209 0.000000
v -0.221400 0.168600 0.164000
vt -1.181102 0.000000
vt -0.000000 0.000000
vt -0.000000 9.574803
vt -8.503937 5.653913
vt -1.181102 5.653913
vt 0.393701 10.362200
vt -9.685040 9.574803
vt -10.078740 9.574803
vt -10.078740 10.362200
vt -9.685040 0.000000
vt 6.889764 5.653913
vt 6.889764 -0.000000
vt 8.070867 -0.000000
vt 1.181102 5.653913
vt 8.070867 9.574803
vt -0.000000 9.574803
vt 1.181102 -0.000000
vt -0.000000 -0.000000
vt -1.181102 5.653913
vt 0.000000 0.000000
vt 0.000000 9.574803
vt -8.070867 9.574803
vt -6.889764 0.000000
vt -6.889764 5.653913
vt -8.070867 0.000000
vt 0.000000 6.622416
vt 6.456693 6.622416
vt 6.456693 8.606299
vt 6.456693 6.637795
vt 10.078740 8.070867
vt -0.393701 8.070867
vt -0.393701 -0.393701
vt -0.393701 10.362200
vt -0.393701 9.574803
vt 10.078740 9.574803
vt 10.078740 10.362200
vt -8.070867 10.362200
vt -8.070867 9.574803
vt 0.393701 9.574803
vt -9.685040 0.000000
vt -10.078740 8.070867
vt -10.078740 -0.393701
vt -0.000000 0.000000
vt 0.393701 -0.393701
vt -0.393701 10.362200
vt -0.393701 9.574803
vt 8.070867 9.574803
vt 8.070867 10.362200
vt -9.685040 6.889764
vt -9.685040 1.181102
vt -8.503937 1.181102
vt -8.503937 8.070867
vt -8.503937 6.889764
vt -1.181102 0.000000
vt -1.181102 1.181102
vt -1.181102 6.889764
vt -1.181102 8.070867
vt -0.000000 1.181102
vt 0.000000 5.653913
vt -1.181102 5.653913
vt -1.181102 0.000000
vt -8.503937 0.000000
vt -8.503937 1.181102
vt -9.685040 1.181102
vt -9.685040 0.000000
vt -8.503937 0.000000
vt -8.503937 5.653913
vt -9.685040 5.653913
vt -1.181102 5.653913
vt -1.181102 0.000000
vt -0.000000 0.000000
vt -1.181102 8.070867
vt -1.181102 6.889764
vt 0.000000 6.889764
vt 6.889764 5.653913
vt 6.889764 0.000000
vt 8.070867 0.000000
vt 8.070867 5.653913
vt -0.000000 0.000000
vt 1.181102 0.000000
vt 1.181102 5.653913
vt -0.000000 5.653913
vt -0.000000 6.622416
vt 0.000000 8.606299
vt -6.456693 8.606299
vt -6.456693 6.637795
vt -6.456693 6.622416
vt 8.503937 0.000000
vt 9.685040 0.000000
vt 9.685040 9.574803
vt 8.503937 5.653913
vt 8.716536 6.622416
vt 8.716536 8.606299
vt 0.968504 8.606299
vt 0.968504 6.622416
vt 1.181102 5.653913
vt 0.393701 9.574803
vt -8.503937 0.000000
vt -1.181102 0.000000
vt -0.000000 8.606299
vt -0.968504 0.000000
vt -0.968504 6.456693
vt -8.716536 6.456693
vt -8.716536 0.000000
vt 10.078740 -0.393701
vt 0.393701 10.362200
vt -9.685040 8.070867
vt 0.000000 8.070867
vt 0.393701 8.070867
vt -8.503937 0.000000
vt 0.000000 6.889764
vt 0.000000 1.181102
vt -1.181102 1.181102
vt -1.181102 0.000000
vt 0.000000 0.000000
vt 0.000000 5.653913
vt 0.000000 0.000000
vt 1.181102 0.000000
vt 1.181102 5.653913
vt -9.685040 0.000000
vt -0.000000 5.653913
vt -8.503937 6.889764
vt -8.503937 8.070867
vt -9.685040 8.070867
vt -9.685040 6.889764
vt 8.503937 0.000000
vt 9.685040 0.000000
vt 9.685040 5.653913
vt 8.503937 5.653913
vt -6.889764 0.000000
vt -6.889764 5.653913
vt -8.070867 5.653913
vt -8.070867 0.000000
vt 0.000000 8.070867
vt 8.716536 6.456693
vt 0.968504 6.456693
vt 0.968504 0.000000
vt 8.716536 0.000000
vt 1.181102 0.000000
vt 1.181102 5.653913
vt -0.000000 5.653913
vt -0.000000 0.000000
vt 1.181102 5.653913
vt -0.000000 5.653913
vt -0.000000 0.000000
vt 1.181102 5.653913
vt -0.000000 5.653913
vt -0.000000 0.000000
vt 1.181102 5.653913
vt -0.000000 5.653913
vt -0.000000 0.000000
vn 0.0000 -0.0000 1.0000
vn -1.0000 0.0000 0.0000
vn 1.0000 -0.0000 -0.0000
vn -0.0000 -0.0000 -1.0000
vn 0.0000 1.0000 0.0000
vn 0.0000 -1.0000 -0.0000
vn 0.0845 0.9964 0.0000
usemtl wood
s 1
f 1/1/1 2/2/1 3/3/1
f 3/3/1 5/4/1 4/5/1
f 7/6/1 6/7/1 3/3/1
f 7/6/1 9/8/1 6/7/1
f 7/6/1 10/9/1 9/8/1
f 5/4/1 6/7/1 11/10/1
f 13/11/2 14/12/2 11/13/2
f 15/14/2 6/15/2 16/16/2
f 17/17/2 15/14/2 16/16/2
f 16/16/2 18/18/2 17/17/2
f 19/19/3 20/20/3 21/21/3
f 21/21/3 3/22/3 19/19/3
f 3/22/3 23/23/3 22/24/3
f 3/22/3 2/25/3 23/23/3
f 27/26/2 28/27/2 25/28/2
f 28/27/2 29/29/4 25/28/2
f 10/30/5 7/31/5 32/32/5
f 32/33/4 34/34/4 35/35/4
f 35/35/4 33/36/4 32/33/4
f 7/37/3 8/38/3 34/39/3
f 16/40/6 9/41/6 35/42/6
f 21/43/6 35/42/6 34/44/6
f 33/45/2 35/46/2 9/47/2
f 9/47/2 10/48/2 33/45/2
f 13/49/6 15/50/6 36/51/7
f 5/52/6 37/53/6 39/54/6
f 5/52/6 39/54/6 40/55/6
f 41/56/6 4/57/6 5/52/6
f 41/56/6 40/55/6 19/58/6
f 19/59/1 40/60/1 42/61/1
f 44/62/6 45/63/6 17/64/6
f 17/65/1 45/66/1 36/67/1
f 36/67/1 15/68/1 17/65/1
f 36/69/3 45/70/3 44/71/3
f 1/72/6 47/73/6 23/74/6
f 41/75/2 47/76/2 1/77/2
f 1/77/2 4/78/2 41/75/2
f 23/79/4 47/80/4 41/81/4
f 41/81/4 22/82/4 23/79/4
f 49/83/3 31/84/3 30/85/3
f 49/83/3 50/86/3 48/87/3
f 44/88/4 18/89/4 16/90/4
f 16/90/4 38/91/4 44/88/4
f 16/90/4 49/92/4 38/91/4
f 16/90/4 31/93/4 49/92/4
f 16/90/4 21/21/4 26/94/4
f 38/91/4 49/92/4 27/95/4
f 27/95/4 26/94/4 21/21/4
f 39/96/4 38/91/4 27/95/4
f 39/96/4 21/21/4 20/20/4
f 3/3/1 4/5/1 1/1/1
f 5/4/1 3/3/1 6/7/1
f 3/3/1 8/97/1 7/6/1
f 11/10/1 12/98/1 5/4/1
f 13/11/2 11/13/2 6/15/2
f 15/14/2 13/11/2 6/15/2
f 3/22/3 22/24/3 19/19/3
f 20/20/3 19/19/3 24/99/3
f 25/28/2 26/100/2 27/26/2
f 26/101/6 25/102/6 30/103/6
f 30/103/6 31/104/6 26/101/6
f 32/32/5 33/105/5 10/30/5
f 34/39/3 32/106/3 7/37/3
f 16/40/6 6/107/6 9/41/6
f 21/43/6 16/40/6 35/42/6
f 3/108/6 21/43/6 34/44/6
f 34/44/6 8/109/6 3/108/6
f 36/51/7 37/53/6 13/49/6
f 37/53/6 36/51/7 38/110/6
f 37/53/6 38/110/6 39/54/6
f 5/52/6 40/55/6 41/56/6
f 19/58/6 22/111/6 41/56/6
f 20/20/6 24/112/6 42/113/6
f 42/113/6 43/114/6 20/20/6
f 42/61/1 24/115/1 19/59/1
f 39/116/2 43/117/2 42/118/2
f 42/118/2 40/119/2 39/116/2
f 17/64/6 18/120/6 44/62/6
f 44/71/3 38/121/3 36/69/3
f 46/122/6 12/123/6 11/124/6
f 11/124/6 14/125/6 46/122/6
f 46/126/4 14/127/4 13/128/4
f 13/128/4 37/129/4 46/126/4
f 46/130/3 37/131/3 5/132/3
f 5/132/3 12/133/3 46/130/3
f 23/74/6 2/134/6 1/72/6
f 48/135/5 28/136/5 27/137/5
f 27/137/5 49/138/5 48/135/5
f 30/85/3 50/86/3 49/83/3
f 16/90/4 26/94/4 31/93/4
f 39/96/4 27/95/4 21/21/4
f 20/20/4 43/139/4 39/96/4
usemtl _defaultMat
f 50/140/4 29/141/4 28/142/4
f 29/143/4 50/144/4 30/145/4
f 30/146/4 25/147/4 29/148/4
f 28/149/4 48/150/4 50/151/4
o drawer
v -0.221400 0.168600 0.164000
v -0.024600 0.168600 0.164000
v -0.024600 0.218600 0.164000
v -0.221400 0.218600 0.164000
v -0.145800 0.183350 0.000000
v -0.024600 0.168600 0.000000
v -0.221400 0.168600 0.000000
v -0.221400 0.218600 0.000000
v -0.145800 0.203850 0.000000
v -0.100200 0.203850 0.000000
v -0.100200 0.183350 0.000000
v -0.024600 0.218600 0.000000
v -0.044929 0.218600 0.020329
v -0.044929 0.218600 0.143671
v -0.201071 0.218600 0.020329
v -0.201071 0.218600 0.143671
v -0.201071 0.178600 0.143671
v -0.044929 0.178600 0.143671
v -0.044929 0.178600 0.020329
v -0.201071 0.178600 0.020329
v -0.106760 0.185400 -0.012300
v -0.106760 0.201800 -0.012300
v -0.139240 0.201800 -0.012300
v -0.139240 0.185400 -0.012300
vt -7.748032 0.015379
vt 0.000000 0.015379
vt 0.000000 1.983883
vt -7.748032 1.983883
vt 4.771654 0.596087
vt 0.000000 0.015379
vt 7.748032 0.015379
vt 7.748032 1.983883
vt 4.771654 1.403174
vt 2.976378 1.403174
vt 2.976378 0.596087
vt 0.000000 1.983883
vt 6.456693 0.015379
vt 6.456693 1.983883
vt -0.000000 -6.456693
vt 0.000000 0.000000
vt -7.748032 0.000000
vt -7.748032 -6.456693
vt -6.456693 1.983883
vt -6.456693 0.015379
vt -0.000000 0.015379
vt -0.000000 1.983883
vt 0.800354 -5.656339
vt 0.800354 -0.800354
vt 0.000000 -6.456693
vt 7.748032 -6.456693
vt 6.947678 -5.656339
vt 7.748032 0.000000
vt 0.000000 0.000000
vt 6.947678 -0.800354
vt 6.947678 -0.800354
vt 0.800354 -0.800354
vt 0.800354 -5.656339
vt 6.947678 -5.656339
vt 5.656339 0.409079
vt 5.656339 1.983883
vt 0.800354 1.983883
vt 0.800354 0.409079
vt 0.800354 0.409079
vt 6.947678 0.409079
vt 6.947678 1.983883
vt 0.800354 1.983883
vt -5.656339 1.983883
vt -5.656339 0.409079
vt -0.800354 0.409079
vt -0.800354 1.983883
vt -6.947678 0.409079
vt -0.800354 0.409079
vt -0.800354 1.983883
vt -6.947678 1.983883
vt 7.097731 0.596087
vt 7.646549 0.676796
vt 7.646549 1.322465
vt 7.097731 1.403174
vt -4.000417 1.322465
vt -4.000417 0.676796
vt -3.451598 0.596087
vt -3.451598 1.403174
vt 4.771654 -6.138162
vt 2.976378 -6.138162
vt 3.234646 -6.629094
vt 4.513386 -6.629094
vt 3.234646 6.957770
vt 2.976378 6.466839
vt 4.771654 6.466839
vt 4.513386 6.957770
vt 3.234646 0.676796
vt 4.513386 0.676796
vt 4.513386 1.322465
vt 3.234646 1.322465
vn 0.0000 0.0000 1.0000
vn -0.0000 0.0000 -1.0000
vn 1.0000 0.0000 0.0000
vn 0.0000 -1.0000 -0.0000
vn -1.0000 0.0000 0.0000
vn 0.0000 1.0000 0.0000
vn 0.8824 0.0000 -0.4706
vn -0.8824 0.0000 -0.4706
vn 0.0000 0.9864 -0.1644
vn 0.0000 -0.9864 -0.1644
usemtl wood
s 1
f 51/152/8 52/153/8 53/154/8
f 53/154/8 54/155/8 51/152/8
f 55/156/9 56/157/9 57/158/9
f 57/158/9 58/159/9 55/156/9
f 58/159/9 59/160/9 55/156/9
f 58/159/9 60/161/9 59/160/9
f 56/157/9 55/156/9 61/162/9
f 61/162/9 62/163/9 56/157/9
f 61/162/9 60/161/9 62/163/9
f 60/161/9 58/159/9 62/163/9
f 56/164/10 62/165/10 53/154/10
f 53/154/10 52/153/10 56/164/10
f 56/166/11 52/167/11 51/168/11
f 51/168/11 57/169/11 56/166/11
f 58/170/12 57/171/12 51/172/12
f 51/172/12 54/173/12 58/170/12
f 63/174/13 64/175/13 62/176/13
f 62/176/13 58/177/13 63/174/13
f 58/177/13 65/178/13 63/174/13
f 58/177/13 54/179/13 65/178/13
f 64/175/13 54/179/13 53/180/13
f 53/180/13 62/176/13 64/175/13
f 64/175/13 66/181/13 54/179/13
f 66/181/13 65/178/13 54/179/13
f 67/182/13 68/183/13 69/184/13
f 69/184/13 70/185/13 67/182/13
f 70/186/10 65/187/10 66/188/10
f 66/188/10 67/189/10 70/186/10
f 68/190/9 67/191/9 66/192/9
f 66/192/9 64/193/9 68/190/9
f 63/194/12 69/195/12 68/196/12
f 68/196/12 64/197/12 63/194/12
f 70/198/8 69/199/8 63/200/8
f 63/200/8 65/201/8 70/198/8
usemtl metal
f 61/202/14 71/203/14 72/204/14
f 72/204/14 60/205/14 61/202/14
f 73/206/15 74/207/15 55/208/15
f 55/208/15 59/209/15 73/206/15
f 59/210/16 60/211/16 72/212/16
f 72/212/16 73/213/16 59/210/16
f 71/214/17 61/215/17 55/216/17
f 55/216/17 74/217/17 71/214/17
f 71/218/9 74/219/9 73/220/9
f 73/220/9 72/221/9 71/218/9
