# Blender v2.91.0 OBJ File: ''
# www.blender.org
mtllib kichenCabinet.mtl
o kitchenCabinet
v 0.000000 0.450000 0.450000
v 0.000000 0.450000 0.420000
v -0.430000 0.450000 0.420000
v -0.430000 0.450000 0.450000
v -0.430000 0.390000 0.450000
v 0.000000 0.390000 0.450000
v 0.000000 0.390000 0.000000
v 0.000000 0.390000 0.020000
v -0.430000 0.390000 0.020000
v -0.430000 0.390000 0.000000
v 0.000000 0.420000 0.420000
v 0.000000 0.420000 0.000000
v -0.430000 0.420000 0.000000
v -0.430000 0.420000 0.420000
v 0.000000 -0.000000 0.040000
v 0.000000 -0.000000 0.450000
v -0.430000 -0.000000 0.450000
v -0.430000 -0.000000 0.040000
v -0.026844 0.237543 0.400000
v -0.026844 0.237543 0.040000
v -0.403156 0.237543 0.040000
v -0.403156 0.237543 0.400000
v -0.026844 0.085086 0.400000
v -0.026844 0.085086 0.020000
v -0.403156 0.085086 0.020000
v -0.403156 0.085086 0.400000
v -0.403156 0.363156 0.400000
v -0.026844 0.363156 0.400000
v -0.026844 0.363156 0.020000
v -0.403156 0.363156 0.020000
v 0.000000 0.058242 0.020000
v 0.000000 0.058242 0.040000
v -0.430000 0.058242 0.040000
v -0.430000 0.058242 0.020000
v -0.403156 0.210699 0.040000
v -0.403156 0.210699 0.400000
v -0.026844 0.210699 0.400000
v -0.026844 0.210699 0.040000
v -0.403156 0.085086 0.040000
v -0.026844 0.085086 0.040000
v -0.026844 0.363156 0.040000
v -0.403156 0.363156 0.040000
v -0.026844 0.085086 0.020000
v -0.403156 0.085086 0.020000
v -0.026844 0.363156 0.020000
v -0.403156 0.363156 0.020000
v -0.357814 0.302814 0.020000
v -0.047186 0.105428 0.020000
v -0.382814 0.105428 0.020000
v -0.382814 0.342814 0.020000
v -0.357814 0.322814 0.020000
v -0.277814 0.322814 0.020000
v -0.277814 0.302814 0.020000
v -0.047186 0.342814 0.020000
v -0.277814 0.302814 0.000000
v -0.357814 0.302814 0.000000
v -0.357814 0.312814 0.000000
v -0.277814 0.312814 0.000000
v -0.357814 0.322814 0.010000
v -0.277814 0.322814 0.010000
vt -16.929131 15.354330
vt 0.000000 15.354330
vt 0.000000 17.716539
vt -16.929131 17.716539
vt -16.535431 16.535431
vt -17.716539 15.354330
vt -0.787402 15.354330
vt 0.000000 15.354330
vt 0.000000 16.535431
vt 0.000000 16.535431
vt 0.000000 15.354330
vt 0.787402 15.354330
vt 17.716539 15.354330
vt 17.716539 17.716539
vt 16.535431 17.716539
vt 0.000000 16.535431
vt 16.929131 16.535431
vt 16.929131 17.716539
vt 0.000000 17.716539
vt 0.000000 0.000000
vt 16.929131 0.000000
vt 0.000000 16.535431
vt 16.929131 16.535431
vt 16.929131 17.716539
vt 0.000000 0.000000
vt 0.000000 0.787402
vt -16.929131 0.787402
vt -16.929131 0.000000
vt -16.535431 17.716539
vt -17.716539 17.716539
vt 16.535431 16.535431
vt 16.929131 15.354330
vt 16.929131 16.535431
vt 9.880697 8.571962
vt 13.030300 8.571962
vt 13.030300 8.965663
vt 9.880697 8.965663
vt -9.880697 -1.181102
vt -9.880697 -0.393701
vt -13.030300 -0.393701
vt -13.030300 -1.181102
vt -1.181102 8.965663
vt -1.181102 8.571962
vt -0.393701 8.571962
vt -0.787402 9.359364
vt -0.393701 9.359364
vt 9.880697 -0.393701
vt 9.880697 -0.787402
vt 13.030300 -0.787402
vt 13.030300 -0.393701
vt 1.181102 8.571962
vt 1.181102 8.965663
vt 0.787402 9.359364
vt 0.393701 8.571962
vt 0.393701 9.359364
vt 9.880697 5.504516
vt 13.030300 5.504516
vt 13.030300 6.061293
vt 9.880697 6.061293
vt -16.929131 17.716539
vt -16.929131 1.574803
vt 0.000000 1.574803
vt 15.872280 1.574803
vt 15.872280 15.748030
vt 1.056858 15.748030
vt 15.872280 14.297470
vt 1.056858 14.297470
vt 1.056858 9.352088
vt -1.574803 9.352088
vt -0.787402 3.349844
vt -0.787402 14.297470
vt -15.748030 14.297470
vt -15.748030 9.352088
vt 0.000000 0.000000
vt 16.929131 0.000000
vt 16.929131 2.292987
vt 0.000000 2.292987
vt 1.574803 2.292987
vt 17.716539 0.000000
vt 0.787402 2.292987
vt -1.574803 0.000000
vt -1.574803 2.292987
vt -17.716539 0.000000
vt 1.056858 3.349844
vt 15.872280 3.349844
vt 15.872280 8.295230
vt 1.056858 8.295230
vt 0.000000 17.716539
vt 16.929131 0.787402
vt 16.929131 17.716539
vt -15.872280 15.748030
vt -15.872280 1.574803
vt -1.056858 1.574803
vt 1.574803 8.295230
vt 0.787402 14.297470
vt 0.787402 3.349844
vt 15.748030 3.349844
vt 1.574803 9.352088
vt 15.748030 9.352088
vt 15.748030 14.297470
vt 15.872280 3.349844
vt 0.000000 2.292987
vt 16.929131 2.292987
vt 16.929131 15.354330
vt 15.872280 14.297470
vt 1.056858 14.297470
vt 1.056858 3.349844
vt 0.000000 15.354330
vt 0.000000 17.716539
vt 1.056858 1.574803
vt 1.056858 15.748030
vt 1.056858 0.787402
vt 15.872280 0.787402
vt 15.872280 15.748030
vt 15.872280 9.352088
vt -1.056858 0.787402
vt -1.056858 15.748030
vt -15.872280 15.748030
vt -15.872280 0.787402
vt 0.000000 0.787402
vt 0.000000 1.574803
vt -16.929131 1.574803
vt -16.929131 0.787402
vt -1.574803 8.295230
vt -15.748030 3.349844
vt -15.748030 8.295230
vt 1.574803 0.000000
vt -0.787402 2.292987
vt -16.929131 0.000000
vt 0.000000 0.000000
vt -1.056858 15.748030
vt 1.056858 8.295230
vt 15.872280 8.295230
vt 15.872280 9.352088
vt 1.056858 9.352088
vt 15.748030 8.295230
vt -14.815420 0.000000
vt 0.000000 0.000000
vt 0.000000 10.947630
vt -14.815420 10.947630
vt 0.000000 -0.393701
vt 0.000000 0.393701
vt -14.815420 0.393701
vt -14.815420 -0.393701
vt 0.000000 0.393701
vt 0.000000 -0.393701
vt 14.815420 -0.393701
vt 14.815420 0.393701
vt -0.393701 10.947630
vt -0.393701 0.000000
vt 0.393701 0.000000
vt 0.393701 10.947630
vt 0.393701 0.000000
vt 0.393701 10.947630
vt -0.393701 10.947630
vt -0.393701 0.000000
vt 13.030300 8.571962
vt 0.800864 0.800864
vt 14.014550 0.800864
vt 14.014550 10.146770
vt 13.030300 9.359364
vt 9.880697 9.359364
vt 9.880697 8.571962
vt 0.800864 10.146770
vt 0.000000 0.000000
vt 14.815420 0.000000
vt 14.815420 10.947630
vt 0.000000 10.947630
vn 0.0000 0.0000 1.0000
vn 1.0000 0.0000 0.0000
vn -1.0000 -0.0000 0.0000
vn 0.0000 0.0000 -1.0000
vn 0.0000 1.0000 0.0000
vn 0.0000 -1.0000 0.0000
vn 0.0000 0.7071 -0.7071
usemtl metal.002
s 1
f 5/1/1 6/2/1 1/3/1
f 1/3/1 4/4/1 5/1/1
f 11/5/2 6/6/2 8/7/2
f 7/8/2 12/9/2 11/5/2
f 13/10/3 10/11/3 9/12/3
f 5/13/3 4/14/3 3/15/3
f 11/16/4 14/17/4 3/18/4
f 3/18/4 2/19/4 11/16/4
f 11/16/5 12/20/5 13/21/5
f 13/21/5 14/17/5 11/16/5
f 1/3/5 2/22/5 3/23/5
f 3/23/5 4/24/5 1/3/5
f 7/25/6 8/26/6 9/27/6
f 9/27/6 10/28/6 7/25/6
f 11/5/2 2/29/2 1/30/2
f 11/5/2 1/30/2 6/6/2
f 11/5/2 8/7/2 7/8/2
f 9/12/3 14/31/3 13/10/3
f 9/12/3 5/13/3 14/31/3
f 5/13/3 3/15/3 14/31/3
f 7/8/4 10/32/4 13/33/4
f 13/33/4 12/9/4 7/8/4
f 55/34/4 56/35/4 57/36/4
f 57/36/4 58/37/4 55/34/4
f 55/38/6 53/39/6 47/40/6
f 47/40/6 56/41/6 55/38/6
f 57/42/3 56/43/3 47/44/3
f 47/44/3 59/45/3 57/42/3
f 47/44/3 51/46/3 59/45/3
f 52/47/5 60/48/5 59/49/5
f 59/49/5 51/50/5 52/47/5
f 55/51/2 58/52/2 60/53/2
f 60/53/2 53/54/2 55/51/2
f 60/53/2 52/55/2 53/54/2
f 58/56/7 57/57/7 59/58/7
f 59/58/7 60/59/7 58/56/7
usemtl wood.005
f 17/60/6 18/61/6 15/62/6
f 21/63/5 22/64/5 19/65/5
f 27/66/4 28/67/4 19/68/4
f 21/69/2 25/70/2 30/71/2
f 30/71/2 27/72/2 21/69/2
f 27/72/2 22/73/2 21/69/2
f 15/74/4 18/75/4 33/76/4
f 33/76/4 32/77/4 15/74/4
f 33/78/3 17/79/3 5/13/3
f 33/78/3 5/13/3 9/12/3
f 9/12/3 34/80/3 33/78/3
f 6/6/2 15/81/2 32/82/2
f 6/6/2 16/83/2 15/81/2
f 23/84/4 26/85/4 36/86/4
f 36/86/4 37/87/4 23/84/4
f 6/88/5 8/26/5 9/89/5
f 9/89/5 5/90/5 6/88/5
f 36/91/6 35/92/6 38/93/6
f 38/94/3 29/95/3 24/96/3
f 24/96/3 23/97/3 38/94/3
f 29/95/3 38/94/3 20/98/3
f 20/98/3 19/99/3 28/100/3
f 25/101/4 31/102/4 34/103/4
f 34/103/4 9/104/4 25/101/4
f 9/104/4 30/105/4 25/101/4
f 9/104/4 29/106/4 30/105/4
f 24/107/4 8/108/4 31/102/4
f 24/107/4 29/106/4 8/108/4
f 29/106/4 9/104/4 8/108/4
f 15/62/6 16/109/6 17/60/6
f 19/65/5 20/110/5 21/63/5
f 23/111/5 24/112/5 25/113/5
f 25/113/5 26/114/5 23/111/5
f 19/68/4 22/115/4 27/66/4
f 29/116/6 28/117/6 27/118/6
f 27/118/6 30/119/6 29/116/6
f 31/120/6 32/121/6 33/122/6
f 33/122/6 34/123/6 31/120/6
f 25/70/2 21/69/2 35/124/2
f 35/124/2 26/125/2 25/70/2
f 35/124/2 36/126/2 26/125/2
f 33/78/3 18/127/3 17/79/3
f 31/128/2 8/7/2 6/6/2
f 6/6/2 32/82/2 31/128/2
f 17/129/1 16/130/1 6/2/1
f 6/2/1 5/1/1 17/129/1
f 38/93/6 37/131/6 36/91/6
f 38/132/4 35/133/4 21/134/4
f 21/134/4 20/135/4 38/132/4
f 23/97/3 37/136/3 38/94/3
f 20/98/3 28/100/3 29/95/3
f 31/102/4 25/101/4 24/107/4
f 39/137/1 40/138/1 41/139/1
f 41/139/1 42/140/1 39/137/1
f 43/141/6 40/142/6 39/143/6
f 39/143/6 44/144/6 43/141/6
f 41/145/5 45/146/5 46/147/5
f 46/147/5 42/148/5 41/145/5
f 46/149/3 44/150/3 39/151/3
f 39/151/3 42/152/3 46/149/3
f 43/153/2 45/154/2 41/155/2
f 41/155/2 40/156/2 43/153/2
f 47/157/4 48/158/4 49/159/4
f 49/159/4 50/160/4 47/157/4
f 50/160/4 51/161/4 47/157/4
f 50/160/4 52/162/4 51/161/4
f 48/158/4 47/157/4 53/163/4
f 53/163/4 54/164/4 48/158/4
f 53/163/4 52/162/4 54/164/4
f 52/162/4 50/160/4 54/164/4
usemtl woodDark.001
f 49/159/4 43/165/4 44/166/4
f 44/166/4 46/167/4 49/159/4
f 46/167/4 50/160/4 49/159/4
f 46/167/4 54/164/4 50/160/4
f 43/165/4 49/159/4 48/158/4
f 48/158/4 45/168/4 43/165/4
f 48/158/4 54/164/4 45/168/4
f 54/164/4 46/167/4 45/168/4
