# Blender v2.79 (sub 0) OBJ File: ''
# www.blender.org
mtllib kitchenCabinetDrawer.mtl
o door
v -0.403156 0.085086 0.040000
v -0.026844 0.085086 0.040000
v -0.026844 0.277543 0.040000
v -0.403156 0.277543 0.040000
v -0.026844 0.085086 0.020000
v -0.403156 0.085086 0.020000
v -0.026844 0.277543 0.020000
v -0.403156 0.277543 0.020000
v -0.357814 0.217201 0.020000
v -0.047186 0.105428 0.020000
v -0.382814 0.105428 0.020000
v -0.382814 0.257201 0.020000
v -0.357814 0.237201 0.020000
v -0.277814 0.237201 0.020000
v -0.277814 0.217201 0.020000
v -0.047186 0.257201 0.020000
v -0.277814 0.217201 0.000000
v -0.357814 0.217201 0.000000
v -0.357814 0.227201 0.000000
v -0.277814 0.227201 0.000000
v -0.357814 0.237201 0.010000
v -0.277814 0.237201 0.010000
vt -14.815420 0.000000
vt 0.000000 0.000000
vt 0.000000 7.577046
vt -14.815420 7.577046
vt 0.000000 -0.393701
vt 0.000000 0.393701
vt -14.815420 0.393701
vt -14.815420 -0.393701
vt 0.000000 0.393701
vt 0.000000 -0.393701
vt 14.815420 -0.393701
vt 14.815420 0.393701
vt -0.393701 7.577046
vt -0.393701 0.000000
vt 0.393701 0.000000
vt 0.393701 7.577046
vt 0.393701 0.000000
vt 0.393701 7.577046
vt -0.393701 7.577046
vt -0.393701 0.000000
vt 13.030300 5.201380
vt 0.800864 0.800864
vt 14.014550 0.800864
vt 14.014550 6.776183
vt 13.030300 5.988781
vt 9.880697 5.988781
vt 9.880697 5.201380
vt 0.800864 6.776183
vt 0.000000 0.000000
vt 14.815420 0.000000
vt 14.815420 7.577046
vt 0.000000 7.577046
vt 9.880697 5.201380
vt 13.030300 5.201380
vt 13.030300 5.595080
vt 9.880697 5.595080
vt -9.880697 -1.181102
vt -9.880697 -0.393701
vt -13.030300 -0.393701
vt -13.030300 -1.181102
vt -1.181102 5.595080
vt -1.181102 5.201380
vt -0.393701 5.201380
vt -0.787402 5.988781
vt -0.393701 5.988781
vt 9.880697 -0.393701
vt 9.880697 -0.787402
vt 13.030300 -0.787402
vt 13.030300 -0.393701
vt 1.181102 5.201380
vt 1.181102 5.595080
vt 0.787402 5.988781
vt 0.393701 5.201380
vt 0.393701 5.988781
vt 9.880697 3.121154
vt 13.030300 3.121154
vt 13.030300 3.677931
vt 9.880697 3.677931
vn 0.0000 -0.0000 1.0000
vn 0.0000 -1.0000 -0.0000
vn 0.0000 1.0000 0.0000
vn -1.0000 0.0000 0.0000
vn 1.0000 0.0000 0.0000
vn 0.0000 0.0000 -1.0000
vn 0.0000 0.7071 -0.7071
usemtl wood.003
s 1
f 1/1/1 2/2/1 3/3/1
f 3/3/1 4/4/1 1/1/1
f 5/5/2 2/6/2 1/7/2
f 1/7/2 6/8/2 5/5/2
f 3/9/3 7/10/3 8/11/3
f 8/11/3 4/12/3 3/9/3
f 8/13/4 6/14/4 1/15/4
f 1/15/4 4/16/4 8/13/4
f 5/17/5 7/18/5 3/19/5
f 3/19/5 2/20/5 5/17/5
f 9/21/6 10/22/6 11/23/6
f 11/23/6 12/24/6 9/21/6
f 12/24/6 13/25/6 9/21/6
f 12/24/6 14/26/6 13/25/6
f 10/22/6 9/21/6 15/27/6
f 15/27/6 16/28/6 10/22/6
f 15/27/6 14/26/6 16/28/6
f 14/26/6 12/24/6 16/28/6
usemtl woodDark
f 11/23/6 5/29/6 6/30/6
f 6/30/6 8/31/6 11/23/6
f 8/31/6 12/24/6 11/23/6
f 8/31/6 16/28/6 12/24/6
f 5/29/6 11/23/6 10/22/6
f 10/22/6 7/32/6 5/29/6
f 10/22/6 16/28/6 7/32/6
f 16/28/6 8/31/6 7/32/6
usemtl metal.003
f 17/33/6 18/34/6 19/35/6
f 19/35/6 20/36/6 17/33/6
f 17/37/2 15/38/2 9/39/2
f 9/39/2 18/40/2 17/37/2
f 19/41/4 18/42/4 9/43/4
f 9/43/4 21/44/4 19/41/4
f 9/43/4 13/45/4 21/44/4
f 14/46/3 22/47/3 21/48/3
f 21/48/3 13/49/3 14/46/3
f 17/50/5 20/51/5 22/52/5
f 22/52/5 15/53/5 17/50/5
f 22/52/5 14/54/5 15/53/5
f 20/55/7 19/56/7 21/57/7
f 21/57/7 22/58/7 20/55/7
o drawer.002
v -0.382814 0.297885 0.020000
v -0.026844 0.277543 0.020000
v -0.403156 0.277543 0.020000
v -0.403156 0.363156 0.020000
v -0.382814 0.342814 0.020000
v -0.047186 0.342814 0.020000
v -0.047186 0.297885 0.020000
v -0.026844 0.363156 0.020000
v -0.403156 0.277543 0.400000
v -0.026844 0.277543 0.400000
v -0.026844 0.363156 0.400000
v -0.403156 0.363156 0.400000
v -0.047186 0.363156 0.040342
v -0.382814 0.363156 0.040342
v -0.382814 0.363156 0.379658
v -0.047186 0.363156 0.379658
v -0.255000 0.310349 0.020000
v -0.255000 0.330349 0.020000
v -0.175000 0.330349 0.020000
v -0.175000 0.310349 0.020000
v -0.047186 0.293156 0.379658
v -0.047186 0.293156 0.040342
v -0.382814 0.293156 0.040342
v -0.382814 0.293156 0.379658
v -0.175000 0.320349 0.000000
v -0.255000 0.320349 0.000000
v -0.255000 0.330349 0.010000
v -0.175000 0.330349 0.010000
v -0.255000 0.310349 0.000000
v -0.175000 0.310349 0.000000
vt -14.815420 0.000000
vt 0.000000 0.000000
vt 0.000000 3.370582
vt -14.815420 3.370582
vt 0.800864 0.800864
vt 0.000000 14.960630
vt 0.000000 0.000000
vt 14.815420 0.000000
vt 14.014550 0.800864
vt 14.014550 14.159770
vt 0.800864 14.159770
vt 14.815420 14.960630
vt 0.000000 0.000000
vt 0.000000 3.370582
vt -14.960630 3.370582
vt -14.960630 0.000000
vt 0.000000 14.960630
vt -14.815420 14.960630
vt -14.815420 0.000000
vt 0.000000 3.370582
vt 0.000000 0.000000
vt 14.960630 0.000000
vt 14.960630 3.370582
vt 8.982512 1.291590
vt 0.800864 0.800864
vt 14.014550 0.800864
vt 14.014550 2.569719
vt 8.982512 2.078992
vt 5.832906 2.078992
vt 5.832906 1.291590
vt 0.800864 2.569719
vt 0.800864 14.159770
vt 0.800864 0.800864
vt 14.014550 0.800864
vt 14.014550 14.159770
vt -0.800864 0.614677
vt -0.800864 3.370582
vt -14.159770 3.370582
vt -14.159770 0.614677
vt 0.800864 0.614677
vt 14.014550 0.614677
vt 14.014550 3.370582
vt 0.800864 3.370582
vt 0.800864 3.370582
vt 0.800864 0.614677
vt 14.159770 0.614677
vt 14.159770 3.370582
vt -14.014550 0.614677
vt -0.800864 0.614677
vt -0.800864 3.370582
vt -14.014550 3.370582
vt 14.815420 0.000000
vt 14.815420 3.370582
vt 5.832906 0.634904
vt 8.982512 0.634904
vt 8.982512 1.191681
vt 5.832906 1.191681
vt -0.787402 1.685291
vt -0.787402 1.291590
vt 0.000000 1.291590
vt -0.393701 2.078992
vt 0.000000 2.078992
vt 5.832906 0.000000
vt 5.832906 -0.393701
vt 8.982512 -0.393701
vt 8.982512 0.000000
vt 5.832906 1.291590
vt 8.982512 1.291590
vt 8.982512 1.685291
vt 5.832906 1.685291
vt -5.832906 -0.787402
vt -5.832906 0.000000
vt -8.982512 0.000000
vt -8.982512 -0.787402
vt 0.787402 1.291590
vt 0.787402 1.685291
vt 0.393701 2.078992
vt 0.000000 1.291590
vt 0.000000 2.078992
vn 0.0000 0.0000 1.0000
vn 0.0000 1.0000 0.0000
vn 1.0000 -0.0000 0.0000
vn 0.0000 -1.0000 -0.0000
vn -1.0000 0.0000 0.0000
vn 0.0000 0.0000 -1.0000
vn 0.0000 0.7071 -0.7071
usemtl wood.003
s 1
f 31/59/8 32/60/8 33/61/8
f 33/61/8 34/62/8 31/59/8
f 35/63/9 33/64/9 30/65/9
f 30/65/9 26/66/9 35/63/9
f 26/66/9 36/67/9 35/63/9
f 26/66/9 37/68/9 36/67/9
f 33/64/9 35/63/9 38/69/9
f 38/69/9 34/70/9 33/64/9
f 38/69/9 37/68/9 34/70/9
f 37/68/9 26/66/9 34/70/9
f 24/71/10 30/72/10 33/73/10
f 33/73/10 32/74/10 24/71/10
f 24/71/11 32/75/11 31/76/11
f 31/76/11 25/77/11 24/71/11
f 26/78/12 25/79/12 31/80/12
f 31/80/12 34/81/12 26/78/12
f 39/82/13 29/83/13 23/84/13
f 23/84/13 27/85/13 39/82/13
f 27/85/13 40/86/13 39/82/13
f 27/85/13 41/87/13 40/86/13
f 29/83/13 39/82/13 42/88/13
f 42/88/13 28/89/13 29/83/13
f 42/88/13 41/87/13 28/89/13
f 41/87/13 27/85/13 28/89/13
f 43/90/9 44/91/9 45/92/9
f 45/92/9 46/93/9 43/90/9
f 45/94/10 36/95/10 37/96/10
f 37/96/10 46/97/10 45/94/10
f 43/98/13 46/99/13 37/100/13
f 37/100/13 38/101/13 43/98/13
f 35/102/12 44/103/12 43/104/12
f 43/104/12 38/105/12 35/102/12
f 45/106/8 44/107/8 35/108/8
f 35/108/8 36/109/8 45/106/8
usemtl woodDark
f 23/84/13 24/71/13 25/110/13
f 25/110/13 26/111/13 23/84/13
f 26/111/13 27/85/13 23/84/13
f 26/111/13 28/89/13 27/85/13
f 24/71/13 23/84/13 29/83/13
f 29/83/13 30/72/13 24/71/13
f 29/83/13 28/89/13 30/72/13
f 28/89/13 26/111/13 30/72/13
usemtl metal.003
f 47/112/14 48/113/14 49/114/14
f 49/114/14 50/115/14 47/112/14
f 48/116/12 51/117/12 39/118/12
f 39/118/12 49/119/12 48/116/12
f 39/118/12 40/120/12 49/119/12
f 41/121/9 50/122/9 49/123/9
f 49/123/9 40/124/9 41/121/9
f 52/125/13 51/126/13 48/127/13
f 48/127/13 47/128/13 52/125/13
f 52/129/11 42/130/11 39/131/11
f 39/131/11 51/132/11 52/129/11
f 52/133/10 47/134/10 50/135/10
f 50/135/10 42/136/10 52/133/10
f 50/135/10 41/137/10 42/136/10
o kitchenCabinetDrawer
v 0.000000 0.450000 0.450000
v 0.000000 0.450000 0.420000
v -0.430000 0.450000 0.420000
v -0.430000 0.450000 0.450000
v -0.430000 0.390000 0.450000
v 0.000000 0.390000 0.450000
v 0.000000 0.390000 0.000000
v 0.000000 0.390000 0.020000
v -0.430000 0.390000 0.020000
v -0.430000 0.390000 0.000000
v 0.000000 0.420000 0.420000
v 0.000000 0.420000 0.000000
v -0.430000 0.420000 0.000000
v -0.430000 0.420000 0.420000
v 0.000000 -0.000000 0.040000
v 0.000000 -0.000000 0.450000
v -0.430000 -0.000000 0.450000
v -0.430000 -0.000000 0.040000
v -0.026844 0.277543 0.400000
v -0.026844 0.277543 0.040000
v -0.403156 0.277543 0.040000
v -0.403156 0.277543 0.400000
v -0.026844 0.085086 0.400000
v -0.026844 0.085086 0.020000
v -0.403156 0.085086 0.020000
v -0.403156 0.085086 0.400000
v -0.026844 0.363156 0.020000
v -0.026844 0.363156 0.400000
v -0.403156 0.363156 0.400000
v -0.403156 0.363156 0.020000
v 0.000000 0.058242 0.020000
v 0.000000 0.058242 0.040000
v -0.430000 0.058242 0.040000
v -0.430000 0.058242 0.020000
v -0.403156 0.277543 0.020000
v -0.403156 0.250699 0.040000
v -0.403156 0.250699 0.400000
v -0.026844 0.250699 0.400000
v -0.026844 0.250699 0.040000
v -0.026844 0.277543 0.020000
vt -16.929131 17.716539
vt -16.929131 1.574803
vt 0.000000 1.574803
vt 1.056858 15.748030
vt 1.056858 1.574803
vt 15.872280 1.574803
vt 15.872280 15.748030
vt 1.056858 15.748030
vt 1.056858 0.787402
vt 15.872280 0.787402
vt 15.872280 15.748030
vt 0.000000 0.787402
vt 0.000000 1.574803
vt -16.929131 1.574803
vt -16.929131 0.787402
vt -0.787402 3.349844
vt -1.574803 10.926890
vt -1.574803 9.870033
vt -15.748030 9.870033
vt -15.748030 3.349844
vt 16.929131 2.292987
vt 0.000000 2.292987
vt 0.000000 0.000000
vt 1.574803 2.292987
vt 1.574803 0.000000
vt 17.716539 0.000000
vt 17.716539 15.354330
vt 0.787402 15.354330
vt -17.716539 15.354330
vt -1.574803 0.000000
vt -1.574803 2.292987
vt -17.716539 0.000000
vt 1.056858 3.349844
vt 15.872280 3.349844
vt 15.872280 9.870033
vt -1.056858 1.574803
vt -1.056858 15.748030
vt -15.872280 15.748030
vt -15.872280 1.574803
vt 15.872280 10.926890
vt 1.056858 10.926890
vt 1.056858 9.870033
vt 15.748030 3.349844
vt 15.748030 9.870033
vt 1.574803 9.870033
vt 1.574803 10.926890
vt 15.748030 14.297470
vt 0.787402 14.297470
vt 15.748030 10.926890
vt 15.872280 3.349844
vt 0.000000 2.292987
vt 16.929131 2.292987
vt 16.929131 15.354330
vt 1.056858 14.297470
vt 15.872280 14.297470
vt 0.000000 15.354330
vt 1.056858 10.926890
vt 15.872280 14.297470
vt 1.056858 14.297470
vt 1.056858 10.926890
vt 0.000000 17.716539
vt -1.056858 0.787402
vt -1.056858 15.748030
vt -15.872280 15.748030
vt -15.872280 0.787402
vt -0.787402 10.926890
vt -0.787402 14.297470
vt -15.748030 14.297470
vt -15.748030 10.926890
vt 16.929131 0.000000
vt 0.787402 2.292987
vt -0.787402 2.292987
vt -0.787402 15.354330
vt 1.056858 9.870033
vt 0.000000 17.716539
vt 0.000000 0.787402
vt 16.929131 0.787402
vt 16.929131 17.716539
vt -16.929131 0.000000
vt 0.000000 0.000000
vt 0.000000 15.354330
vt -16.929131 15.354330
vt 15.872280 9.870033
vt 0.787402 10.926890
vt 0.787402 3.349844
vt 15.872280 10.926890
vt 1.056858 3.349844
vt 15.872280 10.926890
vt 0.000000 17.716539
vt 0.000000 16.535431
vt 16.929131 16.535431
vt 16.929131 17.716539
vt 0.000000 0.000000
vt -16.929131 0.787402
vt -16.535431 16.535431
vt 0.000000 16.535431
vt 0.000000 15.354330
vt 16.535431 16.535431
vt 17.716539 17.716539
vt 16.535431 17.716539
vt 0.000000 15.354330
vt 16.929131 15.354330
vt 16.929131 16.535431
vt 0.000000 16.535431
vt 0.000000 16.535431
vt 16.929131 16.535431
vt 16.929131 17.716539
vt 0.000000 17.716539
vt 0.000000 0.000000
vt 16.929131 0.000000
vt -16.929131 17.716539
vt -16.929131 0.000000
vt -16.535431 17.716539
vt -17.716539 17.716539
vn 0.0000 -1.0000 -0.0000
vn 0.0000 1.0000 0.0000
vn 1.0000 -0.0000 0.0000
vn 0.0000 0.0000 -1.0000
vn -1.0000 0.0000 0.0000
vn 0.0000 -0.0000 1.0000
usemtl wood.003
s 1
f 69/138/15 70/139/15 67/140/15
f 71/141/16 72/142/16 73/143/16
f 73/143/16 74/144/16 71/141/16
f 75/145/16 76/146/16 77/147/16
f 77/147/16 78/148/16 75/145/16
f 83/149/15 84/150/15 85/151/15
f 85/151/15 86/152/15 83/149/15
f 77/153/17 73/154/17 88/155/17
f 88/155/17 89/156/17 78/157/17
f 85/158/18 84/159/18 67/160/18
f 85/161/19 70/162/19 69/163/19
f 85/161/19 69/163/19 57/164/19
f 85/161/19 57/164/19 61/165/19
f 58/166/17 67/167/17 84/168/17
f 58/166/17 68/169/17 67/167/17
f 75/170/18 78/171/18 89/172/18
f 91/173/15 90/174/15 89/175/15
f 89/175/15 88/176/15 91/173/15
f 73/177/18 72/178/18 91/179/18
f 75/180/19 90/181/19 91/182/19
f 72/183/19 80/184/19 79/185/19
f 72/183/19 71/186/19 80/184/19
f 77/187/18 83/188/18 86/189/18
f 86/189/18 61/190/18 77/187/18
f 61/190/18 79/191/18 82/192/18
f 79/191/18 61/190/18 60/193/18
f 92/194/18 79/191/18 60/193/18
f 81/195/18 80/196/18 71/197/18
f 67/140/15 68/198/15 69/138/15
f 79/199/15 80/200/15 81/201/15
f 81/201/15 82/202/15 79/199/15
f 87/203/17 82/204/17 81/205/17
f 81/205/17 73/154/17 87/203/17
f 73/154/17 77/153/17 87/203/17
f 81/205/17 74/206/17 73/154/17
f 88/155/17 78/157/17 77/153/17
f 67/160/18 70/207/18 85/158/18
f 61/165/19 86/208/19 85/161/19
f 83/209/17 60/210/17 58/166/17
f 58/166/17 84/168/17 83/209/17
f 89/172/18 90/211/18 75/170/18
f 58/212/16 60/213/16 61/214/16
f 61/214/16 57/215/16 58/212/16
f 69/216/20 68/217/20 58/218/20
f 58/218/20 57/219/20 69/216/20
f 91/179/18 88/220/18 73/177/18
f 91/182/19 92/221/19 76/222/19
f 76/222/19 75/180/19 91/182/19
f 91/182/19 79/185/19 92/221/19
f 79/185/19 91/182/19 72/183/19
f 61/190/18 87/223/18 77/187/18
f 61/190/18 82/192/18 87/223/18
f 83/188/18 77/187/18 76/224/18
f 76/224/18 60/193/18 83/188/18
f 76/224/18 92/194/18 60/193/18
f 71/197/18 74/225/18 81/195/18
usemtl metal.003
f 53/226/16 54/227/16 55/228/16
f 55/228/16 56/229/16 53/226/16
f 57/219/20 58/218/20 53/226/20
f 59/230/15 60/213/15 61/231/15
f 63/232/17 58/166/17 60/210/17
f 65/233/19 62/234/19 61/165/19
f 61/165/19 66/235/19 65/233/19
f 61/165/19 57/164/19 66/235/19
f 57/164/19 56/236/19 55/237/19
f 59/238/18 62/239/18 65/240/18
f 65/240/18 64/241/18 59/238/18
f 63/242/18 66/243/18 55/244/18
f 55/244/18 54/245/18 63/242/18
f 63/242/16 64/246/16 65/247/16
f 53/226/20 56/248/20 57/219/20
f 61/231/15 62/249/15 59/230/15
f 63/232/17 54/250/17 53/251/17
f 63/232/17 53/251/17 58/166/17
f 63/232/17 60/210/17 59/238/17
f 59/238/17 64/241/17 63/232/17
f 57/164/19 55/237/19 66/235/19
f 65/247/16 66/243/16 63/242/16
