# Blender v2.79 (sub 0) OBJ File: ''
# www.blender.org
mtllib stoolBarSquare.mtl
o stoolBarSquare
v -0.179470 0.145000 0.051127
v -0.179470 0.355000 0.051127
v -0.179470 0.355000 0.071127
v -0.179470 0.145000 0.071127
v -0.179470 0.125000 0.071127
v -0.179470 0.145000 0.158751
v -0.179470 0.125000 0.158751
v -0.179470 0.355000 0.158751
v -0.179470 0.355000 0.178751
v -0.179470 0.145000 0.178751
v -0.179470 -0.000000 0.158751
v -0.179470 0.125000 0.178751
v -0.179470 -0.000000 0.178751
v -0.179470 -0.000000 0.051127
v -0.179470 0.125000 0.051127
v -0.179470 -0.000000 0.071127
v -0.065970 0.125000 0.071127
v -0.065970 0.125000 0.158751
v -0.085970 0.125000 0.158751
v -0.085970 0.125000 0.071127
v -0.085970 0.125000 0.178751
v -0.085970 0.125000 0.051127
v -0.199470 0.125000 0.158751
v -0.199470 0.125000 0.071127
v -0.085970 0.145000 0.071127
v -0.085970 0.145000 0.158751
v -0.085970 -0.000000 0.158751
v -0.085970 -0.000000 0.178751
v -0.085970 0.355000 0.051127
v -0.085970 0.145000 0.051127
v -0.085970 0.355000 0.071127
v -0.085970 -0.000000 0.071127
v -0.085970 -0.000000 0.051127
v -0.085970 0.355000 0.158751
v -0.085970 0.145000 0.178751
v -0.085970 0.355000 0.178751
v -0.199470 -0.000000 0.178751
v -0.199470 -0.000000 0.158751
v -0.199470 0.145000 0.071127
v -0.199470 0.355000 0.071127
v -0.199470 -0.000000 0.071127
v -0.065970 -0.000000 0.071127
v -0.065970 0.145000 0.071127
v -0.065970 0.355000 0.071127
v -0.199470 0.145000 0.158751
v -0.065970 0.145000 0.158751
v -0.065970 -0.000000 0.178751
v -0.065970 0.355000 0.178751
v -0.199470 0.355000 0.178751
v -0.065970 0.355000 0.158751
v -0.199470 0.355000 0.158751
v -0.065970 -0.000000 0.158751
v -0.199470 -0.000000 0.051127
v -0.199470 0.355000 0.051127
v -0.065970 -0.000000 0.051127
v -0.065970 0.355000 0.051127
v -0.055970 0.405000 0.188751
v -0.055970 0.405000 0.041127
v -0.209470 0.405000 0.041127
v -0.209470 0.405000 0.188751
v -0.055970 0.355000 0.041127
v -0.055970 0.355000 0.188751
v -0.209470 0.355000 0.188751
v -0.085970 0.355000 0.041127
v -0.209470 0.355000 0.041127
vt -2.012870 5.708662
vt -2.012870 13.976380
vt -2.800271 13.976380
vt -2.800271 5.708662
vt -2.800271 4.921260
vt -6.250035 5.708662
vt -7.037437 13.976380
vt -7.037437 5.708662
vt -2.800271 0.000000
vt -2.012870 0.000000
vt -3.384646 6.250035
vt -3.384646 2.800271
vt -2.597244 2.800271
vt -3.384646 7.037437
vt -7.065748 7.037437
vt -7.065748 2.800271
vt -7.065748 2.012870
vt -3.384646 2.012870
vt -7.065748 6.250035
vt -7.853149 6.250035
vt 6.250035 4.921260
vt 6.250035 0.000000
vt 7.037437 0.000000
vt 7.037437 4.921260
vt 2.800271 5.708662
vt 2.800271 13.976380
vt 2.012870 13.976380
vt 2.012870 4.921260
vt 2.012870 0.000000
vt 2.800271 0.000000
vt 6.250035 13.976380
vt 6.250035 5.708662
vt 7.037437 5.708662
vt -7.065748 13.976380
vt -7.853149 13.976380
vt -7.853149 5.708662
vt -7.853149 -0.000000
vt -7.065748 -0.000000
vt -7.065748 4.921260
vt -2.597244 5.708662
vt -2.597244 13.976380
vt -3.384646 13.976380
vt 3.384646 2.800271
vt 3.384646 6.250035
vt 2.597244 6.250035
vt 3.384646 2.012870
vt 7.065748 2.012870
vt -2.597244 13.976380
vt -3.384646 5.708662
vt -3.384646 4.921260
vt -7.065748 4.921260
vt -7.065748 5.708662
vt -7.853149 13.976380
vt -7.853149 0.000000
vt 2.597244 5.708662
vt 3.384646 5.708662
vt 3.384646 13.976380
vt 3.384646 4.921260
vt 7.065748 4.921260
vt 7.065748 5.708662
vt 7.853149 5.708662
vt 7.853149 13.976380
vt -3.384646 7.037437
vt -3.384646 6.250035
vt -2.597244 6.250035
vt -7.065748 2.012870
vt -7.065748 2.800271
vt -7.853149 2.800271
vt -7.853149 2.012870
vt 2.800271 0.000000
vt 2.800271 4.921260
vt 2.012870 13.976380
vt 2.800271 5.708662
vt 7.037437 0.000000
vt 6.250035 5.708662
vt 6.250035 4.921260
vt 6.250035 0.000000
vt 7.037437 13.976380
vt 6.250035 13.976380
vt 2.800271 13.976380
vt -2.597244 2.012870
vt -2.597244 2.800271
vt -3.384646 2.800271
vt -7.037437 13.976380
vt -6.250035 4.921260
vt -6.250035 5.708662
vt -6.250035 0.000000
vt -7.037437 0.000000
vt -2.800271 13.976380
vt -2.800271 5.708662
vt -2.800271 0.000000
vt -2.012870 0.000000
vt -2.012870 13.976380
vt 7.065748 0.000000
vt 7.853149 0.000000
vt 7.853149 13.976380
vt 7.065748 5.708662
vt 3.384646 4.921260
vt 7.065748 4.921260
vt 7.065748 13.976380
vt 3.384646 5.708662
vt 2.597244 13.976380
vt 2.597244 0.000000
vt 3.384646 0.000000
vt -6.250035 4.921260
vt -6.250035 13.976380
vt -6.250035 -0.000000
vt -7.037437 4.921260
vt -7.037437 -0.000000
vt -2.012870 4.921260
vt -2.597244 6.250035
vt -7.853149 2.800271
vt 2.800271 4.921260
vt 2.012870 5.708662
vt 7.037437 13.976380
vt -7.065748 6.250035
vt -7.065748 7.037437
vt -7.853149 7.037437
vt -7.853149 6.250035
vt -7.065748 5.708662
vt -3.384646 5.708662
vt -3.384646 4.921260
vt -7.853149 4.921260
vt -2.597244 4.921260
vt -3.384646 0.000000
vt -2.597244 0.000000
vt 3.384646 7.037437
vt 7.065748 6.250035
vt 7.065748 7.037437
vt 7.853149 6.250035
vt 7.065748 2.800271
vt 7.853149 2.800271
vt 2.597244 2.800271
vt -3.384646 0.000000
vt -2.597244 0.000000
vt -3.384646 13.976380
vt -7.065748 0.000000
vt -7.065748 13.976380
vt 2.597244 13.976380
vt 7.065748 13.976380
vt 2.597244 0.000000
vt 3.384646 0.000000
vt 2.597244 4.921260
vt 7.853149 4.921260
vt 7.065748 0.000000
vt 7.853149 0.000000
vt -2.597244 7.037437
vt 2.012870 0.000000
vt -3.384646 2.012870
vt -6.250035 13.976380
vt -2.800271 4.921260
vt 3.384646 13.976380
vt -1.619169 13.976380
vt -1.619169 15.944880
vt -7.431138 15.944880
vt -7.431138 13.976380
vt -3.384646 6.250035
vt -3.384646 2.800271
vt -2.597244 2.800271
vt -7.065748 7.037437
vt -8.246850 7.431138
vt -3.384646 7.037437
vt -2.597244 7.037437
vt -2.203543 1.619169
vt -2.203543 7.431138
vt -3.384646 2.012870
vt -7.853149 6.250035
vt -7.853149 7.037437
vt -7.853149 2.800271
vt -7.853149 2.012870
vt -3.384646 1.619169
vt -7.065748 2.012870
vt -8.246850 1.619169
vt -7.065748 6.250035
vt -7.065748 2.800271
vt -2.597244 2.012870
vt -2.597244 6.250035
vt 8.246850 15.944880
vt 2.203543 15.944880
vt 2.203543 13.976380
vt -8.246850 13.976380
vt -2.203543 13.976380
vt -2.203543 15.944880
vt -8.246850 15.944880
vt 2.203543 7.431138
vt 2.203543 1.619169
vt 8.246850 1.619169
vt 8.246850 7.431138
vt 3.384646 13.976380
vt 8.246850 13.976380
vt 1.619169 15.944880
vt 1.619169 13.976380
vt 7.431138 13.976380
vt 7.431138 15.944880
vn 1.0000 0.0000 0.0000
vn 0.0000 -1.0000 -0.0000
vn -1.0000 0.0000 0.0000
vn 0.0000 -0.0000 1.0000
vn 0.0000 1.0000 0.0000
vn 0.0000 0.0000 -1.0000
vn -0.5769 -0.8168 -0.0000
vn 0.0001 -1.0000 -0.0000
vn 0.4001 -0.2002 -0.8944
vn -0.1398 -0.9902 -0.0000
vn 0.3726 -0.9280 0.0000
usemtl wood.005
s 1
f 1/1/1 2/2/1 3/3/1
f 3/3/1 4/4/1 1/1/1
f 5/5/1 4/4/1 6/6/1
f 9/7/1 10/8/1 6/6/1
f 5/5/1 16/9/1 14/10/1
f 19/11/2 20/12/2 17/13/2
f 19/11/2 21/14/2 12/15/2
f 5/16/2 15/17/2 22/18/2
f 5/16/2 7/19/2 23/20/2
f 19/21/3 27/22/3 28/23/3
f 28/23/3 21/24/3 19/21/3
f 25/25/3 31/26/3 29/27/3
f 22/28/3 33/29/3 32/30/3
f 34/31/3 26/32/3 35/33/3
f 3/34/4 40/35/4 39/36/4
f 41/37/4 16/38/4 5/39/4
f 43/40/4 44/41/4 31/42/4
f 25/43/5 26/44/5 46/45/5
f 25/43/5 30/46/5 1/47/5
f 48/48/4 35/49/4 21/50/4
f 12/51/4 35/49/4 10/52/4
f 12/51/4 49/53/4 37/54/4
f 46/55/6 26/56/6 34/57/6
f 19/58/6 7/59/6 6/60/6
f 6/60/6 45/61/6 51/62/6
f 28/63/2 27/64/2 52/65/2
f 14/66/2 16/67/2 41/68/2
f 41/68/2 53/69/2 14/66/2
f 41/70/3 24/71/3 54/72/3
f 54/72/3 24/71/3 39/73/3
f 37/74/3 45/75/3 23/76/3
f 23/76/3 38/77/3 37/74/3
f 37/74/3 49/78/3 51/79/3
f 39/73/3 40/80/3 54/72/3
f 55/81/2 42/82/2 32/83/2
f 48/84/1 18/85/1 46/86/1
f 48/84/1 52/87/1 18/85/1
f 48/84/1 47/88/1 52/87/1
f 44/89/1 43/90/1 42/91/1
f 44/89/1 42/91/1 55/92/1
f 55/92/1 56/93/1 44/89/1
f 14/94/6 53/95/6 54/96/6
f 1/97/6 22/98/6 15/99/6
f 54/96/6 2/100/6 1/97/6
f 22/98/6 1/97/6 30/101/6
f 22/98/6 56/102/6 55/103/6
f 55/103/6 33/104/6 22/98/6
f 6/6/1 7/105/1 5/5/1
f 6/6/1 8/106/1 9/7/1
f 11/107/1 7/105/1 12/108/1
f 12/108/1 13/109/1 11/107/1
f 14/10/1 15/110/1 5/5/1
f 17/13/2 18/111/2 19/11/2
f 12/15/2 7/19/2 19/11/2
f 22/18/2 20/12/2 5/16/2
f 23/20/2 24/112/2 5/16/2
f 25/25/3 20/113/3 19/21/3
f 19/21/3 26/32/3 25/25/3
f 29/27/3 30/114/3 25/25/3
f 32/30/3 20/113/3 22/28/3
f 35/33/3 36/115/3 34/31/3
f 11/116/2 13/117/2 37/118/2
f 37/118/2 38/119/2 11/116/2
f 39/36/4 4/120/4 3/34/4
f 25/121/4 4/120/4 5/39/4
f 5/39/4 20/122/4 25/121/4
f 5/39/4 24/123/4 41/37/4
f 17/124/4 20/122/4 32/125/4
f 32/125/4 42/126/4 17/124/4
f 31/42/4 25/121/4 43/40/4
f 35/127/5 26/44/5 6/128/5
f 6/128/5 10/129/5 35/127/5
f 45/130/5 6/128/5 4/131/5
f 4/131/5 39/132/5 45/130/5
f 46/45/5 43/133/5 25/43/5
f 1/47/5 4/131/5 25/43/5
f 28/134/4 47/135/4 48/48/4
f 48/48/4 21/50/4 28/134/4
f 35/49/4 12/51/4 21/50/4
f 48/48/4 36/136/4 35/49/4
f 12/51/4 10/52/4 49/53/4
f 37/54/4 13/137/4 12/51/4
f 10/52/4 9/138/4 49/53/4
f 34/57/6 50/139/6 46/55/6
f 6/60/6 26/56/6 19/58/6
f 51/62/6 8/140/6 6/60/6
f 52/141/6 27/142/6 19/58/6
f 19/58/6 18/143/6 52/141/6
f 23/144/6 7/59/6 11/145/6
f 11/145/6 38/146/6 23/144/6
f 52/65/2 47/147/2 28/63/2
f 54/72/3 53/148/3 41/70/3
f 39/73/3 24/71/3 23/76/3
f 23/76/3 45/75/3 39/73/3
f 37/74/3 51/79/3 45/75/3
f 32/83/2 33/149/2 55/81/2
f 46/86/1 50/150/1 48/84/1
f 46/86/1 18/85/1 17/151/1
f 43/90/1 46/86/1 17/151/1
f 43/90/1 17/151/1 42/91/1
f 54/96/6 15/99/6 14/94/6
f 54/96/6 1/97/6 15/99/6
f 22/98/6 30/101/6 56/102/6
f 30/101/6 29/152/6 56/102/6
usemtl carpet.001
f 61/153/1 58/154/1 57/155/1
f 57/155/1 62/156/1 61/153/1
f 34/157/2 31/158/2 44/159/7
f 9/160/2 31/158/2 34/157/2
f 63/161/2 9/160/2 34/157/2
f 63/161/2 34/157/2 36/162/2
f 63/161/2 36/162/2 48/163/2
f 48/163/2 61/164/2 62/165/2
f 9/160/2 29/166/2 31/158/2
f 63/161/2 51/167/2 49/168/2
f 63/161/2 40/169/2 51/167/2
f 63/161/2 54/170/2 40/169/2
f 64/171/2 9/160/2 2/172/8
f 2/172/8 65/173/2 64/171/2
f 54/170/2 63/161/2 65/173/2
f 9/160/2 8/174/9 2/172/8
f 8/174/9 3/175/10 2/172/8
f 51/167/2 40/169/2 3/175/10
f 56/176/2 64/171/2 61/164/2
f 61/164/2 48/163/2 56/176/2
f 50/177/11 44/159/7 56/176/2
f 59/178/6 58/179/6 61/180/6
f 63/181/4 62/182/4 57/183/4
f 57/183/4 60/184/4 63/181/4
f 57/185/5 58/186/5 59/187/5
f 59/187/5 60/188/5 57/185/5
f 44/159/7 50/177/11 34/157/2
f 62/165/2 63/161/2 48/163/2
f 9/160/2 64/171/2 29/166/2
f 63/161/2 49/168/2 9/160/2
f 2/172/8 54/170/2 65/173/2
f 3/175/10 8/174/9 51/167/2
f 56/176/2 29/166/2 64/171/2
f 48/163/2 50/177/11 56/176/2
f 64/189/6 65/190/6 59/178/6
f 59/178/6 61/180/6 64/189/6
f 59/191/3 65/192/3 63/193/3
f 63/193/3 60/194/3 59/191/3
