# Blender v2.91.0 OBJ File: ''
# www.blender.org
mtllib table.mtl
o tableCoffee
v -0.200000 0.070000 -0.060000
v -0.160000 0.070000 -0.060000
v -0.160000 0.180000 -0.060000
v -0.200000 0.180000 -0.060000
v 0.420996 0.070000 -0.060000
v -0.160000 0.050000 -0.060000
v 0.420996 0.050000 -0.060000
v -0.200000 0.000000 -0.060000
v -0.160000 0.000000 -0.060000
v -0.200000 0.050000 -0.060000
v 0.460996 0.050000 -0.060000
v 0.420996 0.000000 -0.060000
v 0.460996 0.000000 -0.060000
v 0.460996 0.070000 -0.060000
v 0.460996 0.180000 -0.060000
v 0.420996 0.180000 -0.060000
v -0.160000 0.050000 0.260000
v -0.200000 0.050000 0.260000
v 0.420996 0.050000 0.260000
v 0.420996 0.050000 0.300000
v -0.160000 0.050000 0.300000
v 0.420996 0.050000 -0.100000
v -0.160000 0.050000 -0.100000
v 0.460996 0.050000 0.260000
v 0.460996 -0.000000 0.260000
v 0.420996 -0.000000 0.260000
v -0.160000 0.070000 0.260000
v 0.420996 0.070000 0.260000
v 0.460996 0.070000 0.260000
v 0.420996 0.180000 0.260000
v 0.460996 0.180000 0.260000
v -0.160000 -0.000000 0.260000
v -0.200000 -0.000000 0.260000
v -0.200000 0.070000 0.260000
v -0.200000 0.180000 0.260000
v -0.160000 0.180000 0.260000
v -0.160000 0.000000 -0.100000
v -0.200000 0.000000 -0.100000
v 0.460996 0.230000 0.300000
v 0.460996 0.230000 -0.100000
v -0.200000 0.230000 -0.100000
v -0.200000 0.230000 0.300000
v -0.200000 -0.000000 0.300000
v 0.460996 0.000000 -0.100000
v 0.460996 -0.000000 0.300000
v -0.160000 0.180000 -0.100000
v -0.160000 0.180000 0.300000
v 0.420996 0.180000 -0.100000
v 0.420996 0.180000 0.300000
v -0.160000 0.070000 -0.100000
v 0.420996 0.070000 -0.100000
v 0.420996 0.000000 -0.100000
v 0.420996 -0.000000 0.300000
v 0.420996 0.070000 0.300000
v -0.160000 0.070000 0.300000
v -0.160000 -0.000000 0.300000
vt -7.874016 2.755906
vt -6.299212 2.755906
vt -6.299212 7.086614
vt -7.874016 7.086614
vt 16.574650 2.755906
vt -6.299212 1.968504
vt 16.574650 1.968504
vt -7.874016 0.000000
vt -6.299212 0.000000
vt 18.149450 1.968504
vt 16.574650 0.000000
vt 18.149450 2.755906
vt 18.149450 7.086614
vt -7.874016 10.236220
vt -7.874016 -2.362205
vt -6.299212 -2.362205
vt -6.299212 10.236220
vt 16.574650 10.236220
vt 16.574650 11.811020
vt -6.299212 11.811020
vt -6.299212 -3.937008
vt 16.574650 -3.937008
vt -18.149450 0.000000
vt -16.574650 0.000000
vt -16.574650 1.968504
vt -18.149450 1.968504
vt 7.874016 1.968504
vt 6.299212 1.968504
vt 6.299212 0.000000
vt 7.874016 0.000000
vt -6.299212 -3.937008
vt -6.299212 -2.362205
vt -7.874016 -2.362205
vt -7.874016 -3.937008
vt -18.149450 11.811020
vt -18.149450 -3.937008
vt 7.874016 -3.937008
vt 7.874016 11.811020
vt -2.362205 2.755906
vt -2.362205 7.086614
vt -2.362205 0.000000
vt -2.362205 1.968504
vt 10.236220 2.755906
vt 10.236220 1.968504
vt -3.937008 9.055119
vt -3.937008 0.000000
vt 11.811020 9.055119
vt 10.236220 7.086614
vt 11.811020 0.000000
vt 10.236220 -0.000000
vt 3.937008 9.055119
vt -11.811020 9.055119
vt 2.362205 7.086614
vt 2.362205 0.000000
vt 3.937008 -0.000000
vt 2.362205 2.755906
vt 2.362205 1.968504
vt -10.236220 2.755906
vt -10.236220 7.086614
vt -10.236220 1.968504
vt -6.299212 -2.362205
vt -6.299212 10.236220
vt -7.874016 10.236220
vt -6.299212 11.811020
vt -6.299212 -3.937008
vt 16.574650 -3.937008
vt 16.574650 -2.362205
vt 7.874016 9.055119
vt 6.299212 1.968504
vt 6.299212 0.000000
vt 6.299212 2.755906
vt -16.574650 1.968504
vt -16.574650 7.086614
vt 6.299212 7.086614
vt -16.574650 2.755906
vt -18.149450 9.055119
vt -18.149450 0.000000
vt -16.574650 0.000000
vt 18.149450 10.236220
vt 18.149450 11.811020
vt 16.574650 11.811020
vt 16.574650 10.236220
vt 18.149450 -3.937008
vt 18.149450 -2.362205
vt 16.574650 -2.362205
vt 10.236220 2.755906
vt -2.362205 2.755906
vt -2.362205 1.968504
vt 11.811020 -0.000000
vt 11.811020 1.968504
vt 10.236220 1.968504
vt 10.236220 7.086614
vt 11.811020 2.755906
vt -3.937008 7.086614
vt -3.937008 2.755906
vt -2.362205 7.086614
vt 2.362205 1.968504
vt 2.362205 2.755906
vt -10.236220 2.755906
vt -10.236220 1.968504
vt 3.937008 2.755906
vt 3.937008 7.086614
vt 2.362205 7.086614
vt 2.362205 0.000000
vt 3.937008 0.000000
vt -11.811020 7.086614
vt -11.811020 2.755906
vt -6.299212 10.236220
vt -6.299212 11.811020
vt -7.874016 11.811020
vt -7.874016 10.236220
vt 6.299212 10.236220
vt 6.299212 -2.362205
vt 7.874016 -2.362205
vt 7.874016 10.236220
vt -16.574650 11.811020
vt -16.574650 10.236220
vt 6.299212 11.811020
vt -16.574650 -2.362205
vt -16.574650 -3.937008
vt -18.149450 10.236220
vt 18.149450 9.055119
vt 16.574650 1.968504
vt 16.574650 0.000000
vt 16.574650 2.755906
vt -6.299212 1.968504
vt -6.299212 7.086614
vt 16.574650 7.086614
vt -7.874016 0.000000
vt -6.299212 0.000000
vt -7.874016 1.968504
vt 18.149450 0.000000
vt 16.574650 7.086614
vt 16.574650 -2.362205
vt 18.149450 -2.362205
vt 18.149450 10.236220
vt 6.299212 2.755906
vt -16.574650 2.755906
vt -18.149450 2.755906
vt -16.574650 7.086614
vt -18.149450 7.086614
vt 7.874016 2.755906
vt 7.874016 7.086614
vt 6.299212 7.086614
vt -10.236220 -0.000000
vt -11.811020 -0.000000
vt -7.874016 -2.362205
vt 16.574650 10.236220
vt 16.574650 11.811020
vt 18.149450 -2.362205
vt 18.149450 10.236220
vt 7.874016 0.000000
vt 16.574650 -3.937008
vt 10.236220 -0.000000
vt 11.811020 7.086614
vt -2.362205 -0.000000
vt -3.937008 1.968504
vt -3.937008 -0.000000
vt 3.937008 1.968504
vt -10.236220 7.086614
vt -11.811020 0.000000
vt -10.236220 -0.000000
vt -11.811020 1.968504
vt 6.299212 -3.937008
vt -18.149450 -2.362205
vt 18.149450 0.000000
vt -6.299212 2.755906
vt -7.874016 9.055119
vn 0.0000 -0.0000 1.0000
vn 0.0000 -1.0000 -0.0000
vn 0.0000 0.0000 -1.0000
vn 0.0000 1.0000 0.0000
vn 0.2250 0.8438 0.4872
vn -1.0000 -0.0000 0.0000
vn 1.0000 -0.0000 -0.0000
vn -0.4473 0.0000 0.8944
vn -1.0000 0.0000 0.0001
vn -0.2250 0.8437 0.4873
vn -0.0796 -0.0000 -0.9968
vn 0.4473 0.0000 0.8944
vn 1.0000 -0.0000 0.0001
vn -0.2054 -0.9787 -0.0000
vn -0.5560 -0.8253 -0.0986
usemtl wood
s 1
f 1/1/1 2/2/1 3/3/1
f 3/3/1 4/4/1 1/1/1
f 5/5/1 2/2/1 6/6/1
f 6/6/1 7/7/1 5/5/1
f 8/8/1 9/9/1 6/6/1
f 11/10/1 7/7/1 12/11/1
f 5/5/1 14/12/1 15/13/1
f 18/14/2 10/15/2 6/16/2
f 17/17/2 19/18/2 20/19/2
f 20/19/2 21/20/2 17/17/2
f 6/16/2 23/21/2 22/22/2
f 25/23/3 26/24/3 19/25/3
f 19/25/3 24/26/3 25/23/3
f 18/27/3 17/28/3 32/29/3
f 32/29/3 33/30/3 18/27/3
f 37/31/2 9/32/2 8/33/2
f 8/33/2 38/34/2 37/31/2
f 39/35/4 40/36/4 41/37/4
f 41/37/4 42/38/4 39/35/4
f 1/39/5 4/40/6 8/41/6
f 8/41/6 10/42/7 1/39/5
f 10/42/7 34/43/8 1/39/5
f 10/42/7 18/44/6 34/43/8
f 8/41/6 4/40/6 41/45/6
f 41/45/6 38/46/6 8/41/6
f 4/40/6 42/47/6 41/45/6
f 4/40/6 35/48/9 42/47/6
f 35/48/9 18/44/6 42/47/6
f 18/44/6 43/49/6 42/47/6
f 18/44/6 33/50/6 43/49/6
f 40/51/7 39/52/7 15/53/7
f 13/54/7 44/55/7 15/53/7
f 14/56/10 11/57/11 13/54/7
f 14/56/10 29/58/12 11/57/11
f 29/58/12 31/59/13 24/60/7
f 3/61/14 36/62/15 35/63/2
f 47/64/2 46/65/2 48/66/2
f 47/64/2 48/66/2 16/67/2
f 41/68/3 23/69/3 37/70/3
f 41/68/3 50/71/3 23/69/3
f 50/71/3 22/72/3 23/69/3
f 41/68/3 48/73/3 46/74/3
f 22/72/3 51/75/3 40/76/3
f 51/75/3 48/73/3 40/76/3
f 22/72/3 40/76/3 44/77/3
f 44/77/3 52/78/3 22/72/3
f 25/79/2 45/80/2 53/81/2
f 53/81/2 26/82/2 25/79/2
f 44/83/2 13/84/2 12/85/2
f 28/86/6 5/87/6 7/88/6
f 53/89/6 20/90/6 19/91/6
f 30/92/6 28/86/6 54/93/6
f 48/94/6 51/95/6 5/87/6
f 5/87/6 16/96/6 48/94/6
f 6/97/7 2/98/7 27/99/7
f 27/99/7 17/100/7 6/97/7
f 50/101/7 46/102/7 3/103/7
f 6/97/7 9/104/7 37/105/7
f 47/106/7 55/107/7 27/99/7
f 32/108/2 56/109/2 43/110/2
f 43/110/2 33/111/2 32/108/2
f 27/112/4 2/113/4 1/114/4
f 1/114/4 34/115/4 27/112/4
f 54/116/4 28/117/4 27/112/4
f 27/112/4 55/118/4 54/116/4
f 2/113/4 5/119/4 51/120/4
f 5/119/4 28/117/4 29/121/4
f 39/122/1 20/123/1 53/124/1
f 39/122/1 54/125/1 20/123/1
f 54/125/1 21/126/1 20/123/1
f 39/122/1 47/127/1 49/128/1
f 43/129/1 56/130/1 21/126/1
f 6/6/1 10/131/1 8/8/1
f 12/11/1 13/132/1 11/10/1
f 15/13/1 16/133/1 5/5/1
f 6/16/2 17/17/2 18/14/2
f 22/22/2 7/134/2 6/16/2
f 19/18/2 7/134/2 11/135/2
f 11/135/2 24/136/2 19/18/2
f 19/25/3 17/28/3 27/137/3
f 27/137/3 28/138/3 19/25/3
f 29/139/3 28/138/3 30/140/3
f 30/140/3 31/141/3 29/139/3
f 27/137/3 34/142/3 35/143/3
f 35/143/3 36/144/3 27/137/3
f 18/44/6 35/48/9 34/43/8
f 15/53/7 44/55/7 40/51/7
f 39/52/7 31/59/13 15/53/7
f 39/52/7 24/60/7 31/59/13
f 39/52/7 25/145/7 24/60/7
f 39/52/7 45/146/7 25/145/7
f 15/53/7 14/56/10 13/54/7
f 29/58/12 24/60/7 11/57/11
f 35/63/2 4/147/2 3/61/14
f 36/62/15 3/61/14 46/65/2
f 47/64/2 36/62/15 46/65/2
f 47/64/2 16/67/2 30/148/2
f 30/148/2 49/149/2 47/64/2
f 30/148/2 16/67/2 15/150/2
f 15/150/2 31/151/2 30/148/2
f 37/70/3 38/152/3 41/68/3
f 41/68/3 46/74/3 50/71/3
f 22/72/3 50/71/3 51/75/3
f 48/73/3 41/68/3 40/76/3
f 12/85/2 52/153/2 44/83/2
f 7/88/6 19/91/6 28/86/6
f 19/91/6 26/154/6 53/89/6
f 54/93/6 49/155/6 30/92/6
f 12/156/6 7/88/6 22/157/6
f 22/157/6 52/158/6 12/156/6
f 3/103/7 2/98/7 50/101/7
f 37/105/7 23/159/7 6/97/7
f 27/99/7 36/160/7 47/106/7
f 56/161/7 32/162/7 17/100/7
f 17/100/7 21/163/7 56/161/7
f 51/120/4 50/164/4 2/113/4
f 29/121/4 14/165/4 5/119/4
f 53/124/1 45/166/1 39/122/1
f 39/122/1 49/128/1 54/125/1
f 21/126/1 54/125/1 55/167/1
f 21/126/1 55/167/1 42/168/1
f 55/167/1 47/127/1 42/168/1
f 47/127/1 39/122/1 42/168/1
f 21/126/1 42/168/1 43/129/1
